<svg width="39" height="30" viewBox="0 0 39 30" fill="none" xmlns="http://www.w3.org/2000/svg">
<g filter="url(#filter0_d_216_3640)">
<rect x="4.22363" y="4.22363" width="30.5527" height="21.5527" rx="2.45989" fill="#FCFCFC" stroke="#D9D9D9" stroke-width="0.447253"/>
<path fill-rule="evenodd" clip-rule="evenodd" d="M11.3934 12.1881C11.8097 12.2244 12.226 11.97 12.4862 11.6474C12.7421 11.3158 12.9112 10.8705 12.8678 10.4162C12.4992 10.4344 12.0439 10.6706 11.7837 11.0023C11.5451 11.2885 11.3413 11.7519 11.3934 12.1881ZM16.345 18.0396V10.9566H18.882C20.1916 10.9566 21.1067 11.9016 21.1067 13.2828C21.1067 14.6639 20.1743 15.618 18.8473 15.618H17.3945V18.0396H16.345ZM12.8632 12.2745C12.4964 12.2523 12.1618 12.39 11.8915 12.5012C11.7175 12.5728 11.5702 12.6334 11.4581 12.6334C11.3324 12.6334 11.179 12.5695 11.0067 12.4979C10.7811 12.4039 10.5231 12.2966 10.2525 12.3017C9.63238 12.3108 9.0556 12.6788 8.73902 13.2649C8.08852 14.4371 8.56989 16.1726 9.19871 17.1267C9.50661 17.5992 9.87523 18.1171 10.3609 18.0989C10.5746 18.0905 10.7283 18.0222 10.8874 17.9514C11.0706 17.87 11.2608 17.7855 11.5579 17.7855C11.8446 17.7855 12.0266 17.8678 12.2012 17.9469L12.2012 17.9469C12.3673 18.0221 12.5267 18.0943 12.7635 18.0899C13.2665 18.0808 13.5831 17.6174 13.891 17.1449C14.2233 16.6377 14.3693 16.1428 14.3915 16.0677L14.3941 16.059C14.3935 16.0585 14.3894 16.0565 14.3822 16.053L14.3822 16.053L14.3822 16.053C14.2711 15.9997 13.4221 15.5926 13.414 14.5007C13.4058 13.5842 14.0874 13.1198 14.1947 13.0467C14.2012 13.0423 14.2056 13.0393 14.2076 13.0377C13.7739 12.3653 13.0974 12.2926 12.8632 12.2745ZM23.0236 18.0941C23.6828 18.0941 24.2943 17.7442 24.5718 17.19H24.5935V18.0396H25.5649V14.514C25.5649 13.4917 24.7843 12.833 23.5831 12.833C22.4685 12.833 21.6446 13.5008 21.6142 14.4186H22.5596C22.6377 13.9824 23.0236 13.6962 23.5527 13.6962C24.1945 13.6962 24.5545 14.0097 24.5545 14.5867V14.9774L23.2448 15.0592C22.0262 15.1364 21.367 15.6589 21.367 16.5675C21.367 17.4853 22.0479 18.0941 23.0236 18.0941ZM23.3063 17.2537C22.7469 17.2537 22.3913 16.972 22.3913 16.5404C22.3913 16.0952 22.7339 15.8362 23.3887 15.7953L24.5553 15.7181V16.1179C24.5553 16.7812 24.0176 17.2537 23.3063 17.2537ZM28.7881 18.3169C28.3674 19.5572 27.8861 19.9661 26.8626 19.9661C26.7846 19.9661 26.5244 19.9571 26.4636 19.9389V19.0893C26.5287 19.0984 26.6891 19.1075 26.7715 19.1075C27.2356 19.1075 27.4958 18.903 27.6562 18.3714L27.7516 18.058L25.9736 12.9013H27.0708L28.3067 17.0857H28.3284L29.5644 12.9013H30.6312L28.7881 18.3169ZM17.3953 11.8835H18.6052C19.5159 11.8835 20.0363 12.3924 20.0363 13.2874C20.0363 14.1824 19.5159 14.6958 18.6009 14.6958H17.3953V11.8835Z" fill="#272727"/>
</g>
<defs>
<filter id="filter0_d_216_3640" x="0.619192" y="0.619192" width="37.7616" height="28.7616" filterUnits="userSpaceOnUse" color-interpolation-filters="sRGB">
<feFlood flood-opacity="0" result="BackgroundImageFix"/>
<feColorMatrix in="SourceAlpha" type="matrix" values="0 0 0 0 0 0 0 0 0 0 0 0 0 0 0 0 0 0 127 0" result="hardAlpha"/>
<feOffset/>
<feGaussianBlur stdDeviation="1.6904"/>
<feComposite in2="hardAlpha" operator="out"/>
<feColorMatrix type="matrix" values="0 0 0 0 0 0 0 0 0 0 0 0 0 0 0 0 0 0 0.07 0"/>
<feBlend mode="normal" in2="BackgroundImageFix" result="effect1_dropShadow_216_3640"/>
<feBlend mode="normal" in="SourceGraphic" in2="effect1_dropShadow_216_3640" result="shape"/>
</filter>
</defs>
</svg>
