<svg width="39" height="30" viewBox="0 0 39 30" fill="none" xmlns="http://www.w3.org/2000/svg">
<g filter="url(#filter0_d_216_3650)">
<rect x="4.22363" y="4.22363" width="30.5527" height="21.5527" rx="2.45989" fill="#FCFCFC" stroke="#D9D9D9" stroke-width="0.447253"/>
<path fill-rule="evenodd" clip-rule="evenodd" d="M19.7207 19.7268C18.6653 20.6694 17.2963 21.2384 15.8004 21.2384C12.4624 21.2384 9.75647 18.4053 9.75647 14.9106C9.75647 11.4159 12.4624 8.58289 15.8004 8.58289C17.2964 8.58289 18.6654 9.15194 19.7208 10.0946C20.7762 9.15201 22.1452 8.583 23.6412 8.583C26.9791 8.583 29.6851 11.416 29.6851 14.9107C29.6851 18.4055 26.9791 21.2385 23.6412 21.2385C22.1452 21.2385 20.7761 20.6694 19.7207 19.7268Z" fill="#ED0006"/>
<path fill-rule="evenodd" clip-rule="evenodd" d="M19.7212 19.7268C21.0207 18.5662 21.8447 16.8392 21.8447 14.9107C21.8447 12.9823 21.0207 11.2553 19.7212 10.0947C20.7766 9.15204 22.1456 8.58301 23.6416 8.58301C26.9796 8.58301 29.6855 11.416 29.6855 14.9107C29.6855 18.4055 26.9796 21.2385 23.6416 21.2385C22.1456 21.2385 20.7766 20.6694 19.7212 19.7268Z" fill="#F9A000"/>
<path fill-rule="evenodd" clip-rule="evenodd" d="M19.7208 19.7269C21.0203 18.5662 21.8443 16.8393 21.8443 14.9108C21.8443 12.9823 21.0203 11.2553 19.7208 10.0947C18.4213 11.2553 17.5973 12.9823 17.5973 14.9108C17.5973 16.8393 18.4213 18.5662 19.7208 19.7269Z" fill="#FF5E00"/>
</g>
<defs>
<filter id="filter0_d_216_3650" x="0.619192" y="0.619192" width="37.7616" height="28.7616" filterUnits="userSpaceOnUse" color-interpolation-filters="sRGB">
<feFlood flood-opacity="0" result="BackgroundImageFix"/>
<feColorMatrix in="SourceAlpha" type="matrix" values="0 0 0 0 0 0 0 0 0 0 0 0 0 0 0 0 0 0 127 0" result="hardAlpha"/>
<feOffset/>
<feGaussianBlur stdDeviation="1.6904"/>
<feComposite in2="hardAlpha" operator="out"/>
<feColorMatrix type="matrix" values="0 0 0 0 0 0 0 0 0 0 0 0 0 0 0 0 0 0 0.07 0"/>
<feBlend mode="normal" in2="BackgroundImageFix" result="effect1_dropShadow_216_3650"/>
<feBlend mode="normal" in="SourceGraphic" in2="effect1_dropShadow_216_3650" result="shape"/>
</filter>
</defs>
</svg>
