<svg width="39" height="30" viewBox="0 0 39 30" fill="none" xmlns="http://www.w3.org/2000/svg">
<g filter="url(#filter0_d_216_3662)">
<rect x="4.22417" y="4.22417" width="30.5517" height="21.5517" rx="2.46587" fill="#FCFCFC" stroke="#D9D9D9" stroke-width="0.448339"/>
<path fill-rule="evenodd" clip-rule="evenodd" d="M12.7681 17.971H11.3902C11.2959 17.971 11.2157 18.0419 11.201 18.1382L10.6438 21.7949C10.6327 21.867 10.6867 21.9321 10.7574 21.9321H11.4152C11.5095 21.9321 11.5897 21.8612 11.6044 21.7647L11.7547 20.7784C11.7692 20.6818 11.8496 20.611 11.9437 20.611H12.3798C13.2875 20.611 13.8112 20.1564 13.9481 19.2557C14.0097 18.8616 13.9507 18.552 13.7724 18.3351C13.5766 18.097 13.2292 17.971 12.7681 17.971ZM12.927 19.3065C12.8517 19.8182 12.4739 19.8182 12.1087 19.8182H11.9007L12.0466 18.8626C12.0553 18.8049 12.1036 18.7623 12.16 18.7623H12.2553C12.5041 18.7623 12.7389 18.7623 12.8602 18.9091C12.9324 18.9967 12.9546 19.1268 12.927 19.3065ZM16.8867 19.2901H16.2269C16.1707 19.2901 16.1221 19.3327 16.1135 19.3905L16.0843 19.5815L16.0381 19.5123C15.8953 19.2977 15.5768 19.226 15.2589 19.226C14.5297 19.226 13.907 19.7975 13.7857 20.5992C13.7227 20.9991 13.8123 21.3815 14.0315 21.6482C14.2326 21.8934 14.5203 21.9956 14.8625 21.9956C15.45 21.9956 15.7759 21.6046 15.7759 21.6046L15.7464 21.7944C15.7353 21.8669 15.7893 21.932 15.8596 21.932H16.4539C16.5485 21.932 16.6282 21.8611 16.6431 21.7646L16.9997 19.4274C17.011 19.3555 16.9572 19.2901 16.8867 19.2901ZM15.967 20.6192C15.9033 21.0093 15.6041 21.2712 15.2226 21.2712C15.031 21.2712 14.8778 21.2076 14.7796 21.0871C14.682 20.9675 14.6449 20.7971 14.676 20.6073C14.7355 20.2205 15.0397 19.9501 15.4154 19.9501C15.6027 19.9501 15.7551 20.0145 15.8554 20.1361C15.9559 20.2589 15.9958 20.4303 15.967 20.6192ZM19.7377 19.29H20.4008C20.4936 19.29 20.5478 19.3978 20.495 19.4767L18.2898 22.7711C18.2541 22.8244 18.1953 22.8562 18.1324 22.8562H17.4702C17.3769 22.8562 17.3225 22.7475 17.3765 22.6685L18.0631 21.6654L17.3328 19.4472C17.3076 19.3701 17.3626 19.29 17.4418 19.29H18.0934C18.178 19.29 18.2527 19.3476 18.2771 19.4314L18.6647 20.7711L19.5792 19.377C19.615 19.3226 19.6745 19.29 19.7377 19.29Z" fill="#253B80"/>
<path fill-rule="evenodd" clip-rule="evenodd" d="M26.9268 21.7946L27.4923 18.0711C27.501 18.0133 27.5493 17.9708 27.6056 17.9706H28.2422C28.3125 17.9706 28.3664 18.0358 28.3553 18.108L27.7977 21.7644C27.7832 21.8609 27.703 21.9319 27.6085 21.9319H27.04C26.9697 21.9319 26.9157 21.8668 26.9268 21.7946ZM22.5962 17.9708H21.2181C21.1241 17.9708 21.0439 18.0417 21.0292 18.138L20.4719 21.7946C20.4608 21.8668 20.5148 21.9319 20.5852 21.9319H21.2923C21.358 21.9319 21.4142 21.8823 21.4245 21.8147L21.5826 20.7782C21.5971 20.6816 21.6775 20.6108 21.7716 20.6108H22.2075C23.1154 20.6108 23.639 20.1562 23.776 19.2555C23.8378 18.8614 23.7784 18.5518 23.6002 18.3349C23.4045 18.0968 23.0574 17.9708 22.5962 17.9708ZM22.7552 19.3063C22.68 19.818 22.3023 19.818 21.9368 19.818H21.7291L21.8752 18.8624C21.8838 18.8047 21.9318 18.7621 21.9883 18.7621H22.0836C22.3323 18.7621 22.5672 18.7621 22.6884 18.9089C22.7608 18.9965 22.7828 19.1266 22.7552 19.3063ZM26.7145 19.2899H26.0552C25.9985 19.2899 25.9504 19.3325 25.9419 19.3903L25.9127 19.5812L25.8664 19.512C25.7236 19.2975 25.4053 19.2258 25.0873 19.2258C24.3582 19.2258 23.7356 19.7973 23.6143 20.599C23.5515 20.9989 23.6407 21.3813 23.8599 21.648C24.0614 21.8932 24.3487 21.9954 24.691 21.9954C25.2785 21.9954 25.6042 21.6044 25.6042 21.6044L25.5748 21.7942C25.5638 21.8667 25.6177 21.9318 25.6885 21.9318H26.2826C26.3767 21.9318 26.4568 21.8608 26.4716 21.7644L26.8284 19.4271C26.8393 19.3552 26.7853 19.2899 26.7145 19.2899ZM25.7949 20.619C25.7316 21.0091 25.432 21.271 25.0504 21.271C24.8592 21.271 24.7057 21.2074 24.6074 21.0869C24.5098 20.9672 24.4732 20.7968 24.5039 20.6071C24.5636 20.2203 24.8675 19.9499 25.2432 19.9499C25.4306 19.9499 25.5829 20.0143 25.6833 20.1359C25.7842 20.2587 25.8241 20.4301 25.7949 20.619Z" fill="#179BD7"/>
<path d="M17.8674 16.6628L18.0368 15.5493L17.6595 15.5403H15.8578L17.1099 7.32342C17.1137 7.29861 17.1264 7.27548 17.1449 7.25906C17.1633 7.24263 17.187 7.23358 17.2116 7.23358H20.2496C21.2582 7.23358 21.9542 7.45079 22.3176 7.87951C22.488 8.08064 22.5965 8.29081 22.649 8.5221C22.704 8.76479 22.705 9.05474 22.6512 9.40838L22.6473 9.43419V9.66078L22.8177 9.76068C22.9612 9.83945 23.0752 9.92962 23.1626 10.0329C23.3084 10.2048 23.4027 10.4234 23.4425 10.6825C23.4836 10.949 23.47 11.2661 23.4027 11.6251C23.3249 12.0381 23.1993 12.3977 23.0296 12.692C22.8734 12.9632 22.6745 13.1881 22.4385 13.3624C22.213 13.528 21.9452 13.6538 21.6424 13.7342C21.3489 13.8133 21.0143 13.8532 20.6474 13.8532H20.4109C20.2419 13.8532 20.0776 13.9162 19.9488 14.0292C19.8196 14.1445 19.734 14.302 19.7078 14.4743L19.69 14.5746L19.3907 16.5371L19.3771 16.6092C19.3735 16.6321 19.3674 16.6434 19.3583 16.6512C19.3502 16.6581 19.3386 16.6628 19.3272 16.6628H17.8674Z" fill="#253B80"/>
<path d="M22.9783 9.4601C22.9693 9.5201 22.9589 9.58144 22.9473 9.64445C22.5465 11.7733 21.1759 12.5088 19.4253 12.5088H18.534C18.3199 12.5088 18.1395 12.6697 18.1061 12.8882L17.6497 15.8836L17.5205 16.7327C17.4988 16.8761 17.6057 17.0055 17.7456 17.0055H19.3265C19.5137 17.0055 19.6727 16.8648 19.7022 16.6737L19.7177 16.5905L20.0154 14.6356L20.0345 14.5284C20.0636 14.3367 20.223 14.1959 20.4102 14.1959H20.6466C22.1783 14.1959 23.3773 13.5523 23.7278 11.6899C23.8742 10.9119 23.7984 10.2622 23.411 9.80535C23.2938 9.66758 23.1484 9.55328 22.9783 9.4601Z" fill="#179BD7"/>
<path d="M22.5595 9.28707C22.4984 9.26863 22.4352 9.25187 22.3704 9.23679C22.3053 9.22205 22.2385 9.20897 22.1699 9.19758C21.9296 9.15735 21.6663 9.13824 21.3842 9.13824H19.003C18.9443 9.13824 18.8887 9.15198 18.8388 9.17679C18.729 9.23143 18.6474 9.33903 18.6276 9.47076L18.121 12.7913L18.1064 12.8882C18.1398 12.6696 18.3202 12.5087 18.5343 12.5087H19.4256C21.1762 12.5087 22.547 11.7729 22.9476 9.6444C22.9595 9.58138 22.9696 9.52004 22.9786 9.46004C22.8773 9.4044 22.7675 9.3568 22.6492 9.31623C22.6201 9.30618 22.59 9.29646 22.5595 9.28707Z" fill="#222D65"/>
<path d="M18.6278 9.47139C18.6476 9.33965 18.7293 9.23205 18.839 9.17774C18.8893 9.15294 18.9446 9.1392 19.0032 9.1392H21.3845C21.6666 9.1392 21.9299 9.1583 22.1701 9.19853C22.2388 9.20992 22.3056 9.223 22.3707 9.23774C22.4355 9.25283 22.4986 9.26959 22.5598 9.28802C22.5902 9.29741 22.6204 9.30713 22.6498 9.31686C22.768 9.35741 22.8779 9.40535 22.9792 9.46066C23.0985 8.67393 22.9783 8.13828 22.5673 7.65324C22.1142 7.11926 21.2963 6.89066 20.2499 6.89066H17.2118C16.998 6.89066 16.8157 7.05155 16.7826 7.27044L15.5173 15.5718C15.4923 15.736 15.6147 15.8842 15.7747 15.8842H17.6504L18.1213 12.7919L18.6278 9.47139Z" fill="#253B80"/>
</g>
<defs>
<filter id="filter0_d_216_3662" x="0.61098" y="0.61098" width="37.778" height="28.778" filterUnits="userSpaceOnUse" color-interpolation-filters="sRGB">
<feFlood flood-opacity="0" result="BackgroundImageFix"/>
<feColorMatrix in="SourceAlpha" type="matrix" values="0 0 0 0 0 0 0 0 0 0 0 0 0 0 0 0 0 0 127 0" result="hardAlpha"/>
<feOffset/>
<feGaussianBlur stdDeviation="1.69451"/>
<feComposite in2="hardAlpha" operator="out"/>
<feColorMatrix type="matrix" values="0 0 0 0 0 0 0 0 0 0 0 0 0 0 0 0 0 0 0.07 0"/>
<feBlend mode="normal" in2="BackgroundImageFix" result="effect1_dropShadow_216_3662"/>
<feBlend mode="normal" in="SourceGraphic" in2="effect1_dropShadow_216_3662" result="shape"/>
</filter>
</defs>
</svg>
