<svg width="39" height="30" viewBox="0 0 39 30" fill="none" xmlns="http://www.w3.org/2000/svg">
<g filter="url(#filter0_d_216_3671)">
<rect x="4.22585" y="4.22585" width="30.5483" height="21.5483" rx="2.48431" fill="#FCFCFC" stroke="#D9D9D9" stroke-width="0.451692"/>
<path fill-rule="evenodd" clip-rule="evenodd" d="M13.4109 18.9031H11.5329L10.1247 13.3427C10.0578 13.0869 9.91591 12.8608 9.70714 12.7542C9.18614 12.4864 8.61202 12.2733 7.98572 12.1658V11.9517H11.011C11.4286 11.9517 11.7417 12.2733 11.7939 12.6467L12.5246 16.6576L14.4017 11.9517H16.2275L13.4109 18.9031ZM17.2715 18.9031H15.4979L16.9583 11.9517H18.7319L17.2715 18.9031ZM21.0263 13.8775C21.0785 13.5031 21.3916 13.289 21.757 13.289C22.3311 13.2353 22.9565 13.3428 23.4784 13.6097L23.7916 12.113C23.2696 11.8989 22.6955 11.7914 22.1745 11.7914C20.4531 11.7914 19.2005 12.7543 19.2005 14.0906C19.2005 15.1073 20.0877 15.6411 20.7141 15.9626C21.3916 16.2833 21.6526 16.4974 21.6004 16.818C21.6004 17.299 21.0785 17.513 20.5575 17.513C19.9312 17.513 19.3049 17.3527 18.7317 17.0849L18.4185 18.5825C19.0448 18.8494 19.7224 18.9569 20.3487 18.9569C22.2789 19.0097 23.4784 18.0478 23.4784 16.6039C23.4784 14.7857 21.0263 14.6791 21.0263 13.8775ZM29.686 18.9031L28.2777 11.9517H26.765C26.4519 11.9517 26.1387 12.1658 26.0343 12.4864L23.4266 18.9031H25.2524L25.6168 17.8874H27.8602L28.0689 18.9031H29.686ZM27.0258 13.8233L27.5468 16.4432H26.0864L27.0258 13.8233Z" fill="#172B85"/>
</g>
<defs>
<filter id="filter0_d_216_3671" x="0.585636" y="0.585636" width="37.8287" height="28.8287" filterUnits="userSpaceOnUse" color-interpolation-filters="sRGB">
<feFlood flood-opacity="0" result="BackgroundImageFix"/>
<feColorMatrix in="SourceAlpha" type="matrix" values="0 0 0 0 0 0 0 0 0 0 0 0 0 0 0 0 0 0 127 0" result="hardAlpha"/>
<feOffset/>
<feGaussianBlur stdDeviation="1.70718"/>
<feComposite in2="hardAlpha" operator="out"/>
<feColorMatrix type="matrix" values="0 0 0 0 0 0 0 0 0 0 0 0 0 0 0 0 0 0 0.07 0"/>
<feBlend mode="normal" in2="BackgroundImageFix" result="effect1_dropShadow_216_3671"/>
<feBlend mode="normal" in="SourceGraphic" in2="effect1_dropShadow_216_3671" result="shape"/>
</filter>
</defs>
</svg>
