<svg width="114.000000" height="69.767334" viewBox="0 0 114 69.7673" fill="none" xmlns="http://www.w3.org/2000/svg" xmlns:xlink="http://www.w3.org/1999/xlink">
	<desc>
			Created with Pixso.
	</desc>
	<defs>
		<clipPath id="clip216_2714">
			<rect id="Vital-J logo 2d 4" width="114.000000" height="69.767281" fill="white" fill-opacity="0"/>
		</clipPath>
	</defs>
	<rect id="Vital-J logo 2d 4" width="114.000000" height="69.767281" fill="#FFFFFF" fill-opacity="0"/>
	<g clip-path="url(#clip216_2714)">
		<path id="Vector" d="M9.24951 56.6257L0 35.6045L7.14941 35.6045L13.9336 51.5813L14.2036 51.5813L20.9927 35.6045L28.1372 35.6045L18.8877 56.6257L9.24951 56.6257Z" fill="#6B99C3" fill-opacity="1.000000" fill-rule="nonzero"/>
		<path id="Vector" d="M36.5146 43.0898C36.1206 43.311 35.6953 43.4709 35.2534 43.564C34.6934 43.6995 34.1187 43.7646 33.542 43.7583C32.9688 43.7654 32.397 43.7 31.8403 43.564C31.4048 43.4695 30.9858 43.3096 30.5981 43.0898L30.3276 43.0898L30.3276 56.6299L36.7803 56.6299L36.7803 43.0898L36.5146 43.0898ZM36.4673 35.822C35.6162 35.2175 34.5981 34.8926 33.5537 34.8926C32.5098 34.8926 31.4917 35.2175 30.6406 35.822C30.3071 36.115 30.04 36.4753 29.8569 36.8796C29.6738 37.2839 29.5791 37.7227 29.5791 38.1665C29.5791 38.6104 29.6738 39.0491 29.8569 39.4531C30.04 39.8574 30.3071 40.218 30.6406 40.511C31.4907 41.1182 32.5093 41.4448 33.5537 41.4448C34.5986 41.4448 35.6172 41.1182 36.4673 40.511C36.8022 40.219 37.0708 39.8586 37.2544 39.4543C37.4385 39.0498 37.5337 38.6108 37.5337 38.1665C37.5337 37.7222 37.4385 37.2832 37.2544 36.8787C37.0708 36.4744 36.8022 36.114 36.4673 35.822Z" fill="#6B99C3" fill-opacity="1.000000" fill-rule="nonzero"/>
		<path id="Vector" d="M47.4941 57.0757C45.1143 57.0757 43.2622 56.4436 41.938 55.1792C40.6196 53.9324 39.9561 52.1121 39.9561 49.7319L39.9561 35.3623L46.4131 35.3623L46.4131 39.5105L51.6284 39.5105L51.6284 41.6724L46.4131 41.6724L46.4131 49.3005C46.3906 49.6555 46.4429 50.0112 46.5669 50.3447C46.6909 50.678 46.8843 50.9814 47.1338 51.2349C47.6914 51.7117 48.4116 51.9546 49.144 51.9128C49.979 51.9124 50.8091 51.791 51.6094 51.5525L51.6094 56.5684C50.9316 56.7427 50.2446 56.8772 49.5518 56.9714C48.8687 57.0479 48.1816 57.0825 47.4941 57.0757Z" fill="#6B99C3" fill-opacity="1.000000" fill-rule="nonzero"/>
		<path id="Vector" d="M60.2046 57.0757C58.1631 57.0757 56.6157 56.6506 55.5635 55.8005C55.0537 55.4011 54.645 54.8877 54.3711 54.3013C54.0967 53.7148 53.9644 53.072 53.9844 52.425C53.958 51.6685 54.1333 50.9182 54.4922 50.2517C54.8516 49.5852 55.3813 49.0264 56.0278 48.6323C57.3901 47.741 59.6323 47.2463 62.7554 47.1484C63.8857 47.134 65.0146 47.0532 66.1357 46.9065C66.6602 46.8599 67.1699 46.7065 67.6338 46.4561C67.7524 46.3774 67.8491 46.2703 67.9155 46.1443C67.9814 46.0183 68.0151 45.8779 68.0127 45.7356C68.0112 45.5847 67.9775 45.4358 67.9146 45.2986C67.8521 45.1614 67.7607 45.0391 67.6479 44.939C67.2681 44.645 66.8193 44.4539 66.3442 44.3843C65.4878 44.2241 64.6172 44.1543 63.7461 44.1758C62.1328 44.1724 60.5254 44.3635 58.958 44.7446C57.6782 45.0293 56.4336 45.4521 55.2456 46.0059L55.2456 40.8618C56.4438 40.2871 57.7104 39.8682 59.0146 39.615C60.7666 39.2349 62.5552 39.0488 64.3481 39.0603C66.3135 38.9993 68.2744 39.2834 70.1416 39.8994C71.4536 40.3218 72.603 41.1399 73.4316 42.2415C74.1406 43.2964 74.5034 44.5457 74.4702 45.8162L74.4702 56.6255L68.0127 56.6255L68.0127 54.2834L67.771 54.2834C67.2539 54.7974 66.6685 55.2378 66.0312 55.5918C65.2031 56.0576 64.3188 56.416 63.3999 56.6587C62.3589 56.9417 61.2837 57.082 60.2046 57.0757ZM63.2056 52.7805C64.4849 52.79 65.749 52.5027 66.8989 51.9414C67.3018 51.7537 67.6768 51.5112 68.0127 51.2207L68.0127 48.49C67.7915 48.627 67.5542 48.7368 67.3066 48.8171C66.8857 48.9619 66.4526 49.0681 66.0122 49.1348C65.4116 49.2322 64.8047 49.2878 64.1963 49.3008C63.2764 49.2827 62.3652 49.4824 61.5366 49.8838C61.3022 50.0068 61.1055 50.1904 60.9658 50.4155C60.8267 50.6409 60.7505 50.8992 60.7451 51.1638C60.7407 51.395 60.793 51.624 60.897 51.8306C61.001 52.0369 61.1538 52.2151 61.3423 52.3491C61.9053 52.6785 62.5552 52.8289 63.2056 52.7805Z" fill="#6B99C3" fill-opacity="1.000000" fill-rule="nonzero"/>
		<path id="Vector" d="M77.4238 35.0068L83.8809 35.0068L83.8809 56.6301L77.4238 56.6301L77.4238 35.0068Z" fill="#6B99C3" fill-opacity="1.000000" fill-rule="evenodd"/>
		<path id="Vector" d="M86.9575 44.9155L99.355 44.9155L99.355 49.5095L86.9575 49.5095L86.9575 44.9155Z" fill="#6B99C3" fill-opacity="1.000000" fill-rule="evenodd"/>
		<path id="Vector" d="M99.2886 69.6062C97.041 69.5872 94.8066 69.2537 92.6514 68.6155L92.6514 63.2393C93.6304 63.5618 94.6299 63.8184 95.6431 64.0073C96.4424 64.1372 97.251 64.2021 98.0605 64.2017C99.6821 64.2017 100.905 63.8225 101.754 63.0591C102.603 62.2959 103.015 61.1392 103.015 59.5745L103.015 35.6045L109.472 35.6045L109.472 59.7832C109.472 63.0071 108.585 65.4502 106.812 67.1125C105.04 68.7751 102.531 69.6062 99.2886 69.6062Z" fill="#6B99C3" fill-opacity="1.000000" fill-rule="nonzero"/>
		<path id="Vector" d="M101.513 14.749C99.8936 14.658 98.2739 14.9282 96.772 15.5405C93.9277 16.8254 93.6904 19.2148 93.6904 19.2148C91.4292 33.1768 74.3237 29.5691 74.3237 29.5691C84.1709 27.0183 87.9634 18.1909 88.186 17.6218C78.0835 30.2991 63.0596 30.0669 57.4697 29.4741L54.8481 25.8096L61.2197 25.7764C63.269 25.7651 65.25 25.0374 66.8188 23.7188L82.7485 10.3208C82.0513 9.30151 80.7524 8.16846 79.1597 6.97388C94.0933 4.9541 94.3306 12.5396 94.3306 12.5396C96.8091 12.9783 99.2227 13.7285 101.513 14.7727L101.513 14.749Z" fill="#6B99C3" fill-opacity="1.000000" fill-rule="nonzero"/>
		<path id="Vector" d="M78.9219 38.1692L74.3184 29.5691L76.9399 29.5596L80.2017 37.5432L78.9219 38.1692Z" fill="#6B99C3" fill-opacity="1.000000" fill-rule="nonzero"/>
		<path id="Vector" d="M100.801 10.0273C101.095 9.70654 101.412 9.40698 101.749 9.1311C102.052 8.89404 102.368 8.67554 102.697 8.47705C104.049 7.70093 105.084 6.47412 105.623 5.01123C105.852 4.48828 105.914 3.90723 105.8 3.34766C105.687 2.78784 105.403 2.2771 104.987 1.88501C104.572 1.49316 104.046 1.23901 103.48 1.15796C102.915 1.0769 102.338 1.17261 101.83 1.43188C101.46 1.62158 101.147 1.90479 100.922 2.25342C100.696 2.60205 100.566 3.00366 100.545 3.41846C100.728 3.29736 100.948 3.2439 101.166 3.2666C101.347 3.2876 101.519 3.3606 101.66 3.47681C101.801 3.59277 101.905 3.74731 101.96 3.92114C102.016 4.09521 102.02 4.28149 101.972 4.45776C101.924 4.63403 101.826 4.79248 101.69 4.91455C101.554 5.03638 101.386 5.11646 101.206 5.14502C101.025 5.17358 100.84 5.14966 100.673 5.07568C100.506 5.00171 100.364 4.88135 100.264 4.72852C100.164 4.57593 100.11 4.39746 100.109 4.21484C99.9951 2.98706 100.436 1.58838 101.626 1.03857C103.418 0.118652 105.959 1.21387 106.277 3.26196C106.519 4.82178 105.75 6.26758 104.812 7.48145C105.504 7.23462 106.218 7.05518 106.945 6.94556C109.662 6.47144 111.397 3.99683 110.396 1.50781C110.302 1.646 110.172 1.75659 110.02 1.82837C109.869 1.90015 109.701 1.93018 109.534 1.91577C109.366 1.90137 109.206 1.84302 109.069 1.74634C108.932 1.6499 108.823 1.51855 108.753 1.36621C108.683 1.21362 108.655 1.04541 108.671 0.878662C108.688 0.71167 108.748 0.552002 108.846 0.416016C108.944 0.280029 109.077 0.172607 109.23 0.104492C109.383 0.036377 109.552 0.0102539 109.719 0.0285645C109.854 0.0449219 109.984 0.090332 110.1 0.161377C110.216 0.232666 110.316 0.328125 110.392 0.441162C112.008 2.85425 111.079 5.51855 108.927 6.83179C109.835 6.85034 110.737 6.9873 111.61 7.2395C116.394 9.24023 113.033 14.863 108.643 12.6394C108.457 12.5549 108.303 12.4126 108.204 12.2336C108.105 12.0547 108.067 11.8486 108.095 11.6462C108.123 11.4438 108.216 11.2561 108.359 11.1106C108.503 10.9651 108.689 10.8696 108.891 10.8389C109.093 10.8081 109.3 10.8433 109.48 10.9392C109.661 11.0352 109.805 11.187 109.892 11.3718C109.979 11.5566 110.004 11.7646 109.964 11.9648C109.923 12.165 109.819 12.3469 109.667 12.4829C110.13 12.6331 110.622 12.6726 111.104 12.5986C111.585 12.5244 112.043 12.3389 112.44 12.0564C112.929 11.6868 113.253 11.1392 113.342 10.5322C113.431 9.92529 113.277 9.30786 112.914 8.81348C112.122 7.79907 110.743 7.46704 109.491 7.41968C106.869 7.32007 104.139 7.96973 102.076 9.64331C101.834 9.84229 101.602 10.051 101.384 10.269C101.697 10.2117 102.019 10.2236 102.327 10.3035C102.636 10.3833 102.923 10.5295 103.168 10.7317C103.415 10.9338 103.613 11.1873 103.751 11.4741C103.89 11.761 103.963 12.0745 103.968 12.3931C103.97 12.4387 103.97 12.4846 103.968 12.5305L103.968 12.5684L103.968 12.6111C103.946 12.7969 103.87 12.9724 103.749 13.115C103.627 13.2578 103.467 13.3613 103.287 13.4128C103.107 13.4644 102.916 13.4612 102.737 13.4043C102.559 13.3472 102.401 13.2388 102.285 13.0923C102.168 12.9458 102.097 12.7683 102.082 12.5815C102.065 12.395 102.105 12.208 102.195 12.0439C102.286 11.8799 102.422 11.7463 102.588 11.6599C102.754 11.5735 102.942 11.5383 103.129 11.5586C103.173 11.5652 103.218 11.5747 103.261 11.5869C103.105 11.364 102.901 11.1785 102.665 11.0432C102.428 10.9082 102.164 10.8267 101.893 10.8049C101.621 10.7832 101.348 10.8218 101.093 10.9175C100.838 11.0134 100.607 11.1643 100.417 11.3594C98.4922 13.8484 97.6245 17.1387 97.4868 20.2485L96.8091 20.2485C96.8638 18.8657 97.0737 17.4934 97.4351 16.1572C97.9033 14.3987 98.6929 12.7415 99.7627 11.2693C100.087 10.8411 100.434 10.4297 100.801 10.0366L100.801 10.0273Z" fill="#6B99C3" fill-opacity="1.000000" fill-rule="nonzero"/>
		<path id="Vector" d="M96.7666 15.5361C93.9219 16.8208 93.6851 19.2104 93.6851 19.2104C91.4233 33.1724 74.3184 29.5645 74.3184 29.5645C84.165 27.0139 87.958 18.1863 88.1807 17.6174C88.1807 17.6174 90.1011 16.1951 96.7666 15.5361Z" fill="#E4E5EA" fill-opacity="1.000000" fill-rule="nonzero"/>
		<path id="Vector" d="M81.0747 24.1597C81.0747 24.1597 73.3613 31.4512 52.7622 30.2849L50.9272 27.6206C50.9272 27.6206 69.4785 30.6262 81.0938 24.1597L81.0747 24.1597Z" fill="#E4E5EA" fill-opacity="1.000000" fill-rule="nonzero"/>
		<path id="Vector" d="M9.27832 69.582L9.27832 62.0962L13.2842 62.0962L13.2842 63.2388L10.7007 63.2388L10.7007 64.9834L13.0713 64.9834L13.0713 66.126L10.7007 66.126L10.7007 68.449L13.2842 68.449L13.2842 69.582L9.27832 69.582Z" fill="#6B99C3" fill-opacity="1.000000" fill-rule="nonzero"/>
		<path id="Vector" d="M16.2568 69.582L16.2568 62.0962L18.5278 62.0962L19.5278 66.9792L20.5234 62.0962L22.79 62.0962L22.79 69.582L21.4717 69.582L21.4717 62.8074L21.4341 62.8074L20.0117 69.6011L19.0063 69.6011L17.5845 62.8264L17.5845 69.582L16.2568 69.582Z" fill="#6B99C3" fill-opacity="1.000000" fill-rule="nonzero"/>
		<path id="Vector" d="M25.895 69.5825L25.895 62.0964L28.583 62.0964C28.9526 62.0898 29.3159 62.1938 29.626 62.3953C29.9263 62.5872 30.166 62.8601 30.3184 63.1821C30.4775 63.5283 30.5566 63.9058 30.5508 64.2869C30.5547 64.6758 30.4736 65.0608 30.3135 65.415C30.1606 65.7485 29.9175 66.0327 29.6118 66.2354C29.2998 66.4409 28.9331 66.5469 28.5596 66.5388L27.3125 66.5388L27.3125 69.5825L25.895 69.5825ZM27.3174 65.4199L28.0332 65.4199C28.1797 65.4312 28.3267 65.4111 28.4648 65.3613C28.603 65.3113 28.729 65.2329 28.8345 65.1306C29.0283 64.8994 29.1255 64.6021 29.1045 64.301C29.125 64.0029 29.0278 63.7085 28.8345 63.481C28.728 63.3804 28.6016 63.303 28.4639 63.2542C28.3257 63.2051 28.1792 63.1855 28.0332 63.1963L27.3174 63.1963L27.3174 65.4199Z" fill="#6B99C3" fill-opacity="1.000000" fill-rule="nonzero"/>
		<path id="Vector" d="M33.5659 67.2454L33.5659 64.5288C33.5566 64.1235 33.6162 63.7195 33.7412 63.334C33.8403 63.03 34.0151 62.7561 34.2485 62.5376C34.4702 62.3384 34.7319 62.1895 35.0166 62.1013C35.6626 61.918 36.3472 61.918 36.9937 62.1013C37.2729 62.1863 37.5308 62.332 37.7476 62.5281C37.98 62.7454 38.1519 63.02 38.2451 63.3245C38.3623 63.7148 38.4185 64.1211 38.4111 64.5288L38.4111 67.2454C38.4185 67.6514 38.3628 68.0559 38.2451 68.4446C38.1519 68.7463 37.978 69.0168 37.7427 69.2271C37.5239 69.417 37.2666 69.5576 36.9888 69.6394C36.668 69.7297 36.3359 69.7729 36.0024 69.7673C34.3779 69.7673 33.5659 68.9268 33.5659 67.2454ZM35.0166 67.4207C35.0166 68.2266 35.3438 68.6296 36.0024 68.6296C36.1367 68.6367 36.2705 68.6121 36.3931 68.5576C36.5161 68.5034 36.624 68.4207 36.709 68.3167C36.8931 68.0557 36.9819 67.7393 36.9604 67.4207L36.9604 64.3674C36.9819 64.0325 36.8936 63.6997 36.709 63.4194C36.6284 63.3091 36.5215 63.2207 36.3984 63.1619C36.2749 63.1033 36.1392 63.0759 36.0024 63.0828C35.3438 63.0828 35.0166 63.5 35.0166 64.3391L35.0166 67.4207Z" fill="#6B99C3" fill-opacity="1.000000" fill-rule="nonzero"/>
		<path id="Vector" d="M41.1558 62.0962L42.5781 62.0962L43.4409 68.3542L44.3892 62.0962L45.8965 62.0962L46.8447 68.3542L47.6982 62.0962L49.1206 62.0962L47.9116 69.582L45.9204 69.582L45.1763 64.3672L44.4033 69.582L42.3931 69.582L41.1558 62.0962Z" fill="#6B99C3" fill-opacity="1.000000" fill-rule="nonzero"/>
		<path id="Vector" d="M51.8374 69.582L51.8374 62.0962L55.8481 62.0962L55.8481 63.2388L53.2646 63.2388L53.2646 64.9834L55.6348 64.9834L55.6348 66.126L53.2646 66.126L53.2646 68.449L55.8481 68.449L55.8481 69.582L51.8374 69.582Z" fill="#6B99C3" fill-opacity="1.000000" fill-rule="nonzero"/>
		<path id="Vector" d="M58.8062 69.5825L58.8062 62.0967L61.7217 62.0967C61.9731 62.0864 62.2236 62.1306 62.4561 62.2263C62.6885 62.3223 62.897 62.467 63.0684 62.6514C63.4087 63.0308 63.5903 63.5264 63.5757 64.0356C63.6001 64.4729 63.5015 64.9082 63.291 65.292C63.21 65.4321 63.0981 65.552 62.9644 65.6431C62.8306 65.7341 62.6782 65.7939 62.5181 65.8184C62.6987 65.8503 62.8711 65.9182 63.0254 66.0173C63.1572 66.1003 63.2661 66.2144 63.3433 66.3494C63.4141 66.4705 63.4668 66.6013 63.4995 66.738C63.5303 66.875 63.5464 67.0149 63.5469 67.1553L63.5469 68.7292C63.5493 68.8184 63.5586 68.9072 63.5757 68.9946C63.5898 69.0591 63.6089 69.1226 63.6323 69.1843C63.6494 69.2385 63.6826 69.2866 63.7271 69.3218C63.769 69.3501 63.8188 69.365 63.8696 69.3645L63.8696 69.5825L62.4473 69.5825C62.3091 69.4121 62.208 69.2153 62.1494 69.0042C62.0903 68.7927 62.0757 68.5718 62.106 68.3547L62.106 67.4919C62.1177 67.2178 62.0503 66.946 61.9116 66.7095C61.8389 66.606 61.7397 66.5234 61.625 66.4702C61.5103 66.417 61.3833 66.3948 61.2573 66.4062L60.2188 66.4062L60.2188 69.5825L58.8062 69.5825ZM60.2285 65.3157L61.1768 65.3157C61.4404 65.3252 61.6982 65.2336 61.8975 65.0598C62.0015 64.9473 62.0811 64.8137 62.1299 64.6682C62.1792 64.5229 62.1968 64.3687 62.1816 64.2158C62.1982 64.0701 62.1836 63.9221 62.1387 63.7825C62.0938 63.6426 62.0195 63.5139 61.9209 63.4053C61.6973 63.2385 61.4214 63.1577 61.1436 63.1775L60.2236 63.1775L60.2285 65.3157Z" fill="#6B99C3" fill-opacity="1.000000" fill-rule="nonzero"/>
		<path id="Vector" d="M66.6997 69.582L66.6997 62.0962L68.1221 62.0962L68.1221 69.582L66.6997 69.582Z" fill="#6B99C3" fill-opacity="1.000000" fill-rule="nonzero"/>
		<path id="Vector" d="M71.2515 69.582L71.2515 62.0962L72.7876 62.0962L74.8643 67.5483C74.7261 66.6243 74.6675 65.6899 74.6885 64.7559L74.6885 62.0962L75.9922 62.0962L75.9922 69.582L74.4565 69.582L72.3799 64.1443C72.5225 65.0647 72.5811 65.9961 72.5552 66.9272L72.5552 69.582L71.2515 69.582Z" fill="#6B99C3" fill-opacity="1.000000" fill-rule="nonzero"/>
		<path id="Vector" d="M79.064 67.0652L79.064 64.6189C79.0103 63.9033 79.2324 63.1941 79.6851 62.6372C79.9282 62.4006 80.2188 62.2183 80.5376 62.1023C80.856 61.9863 81.1958 61.9392 81.5342 61.9639C81.8457 61.9587 82.1562 62.0034 82.4536 62.0967C82.6885 62.1614 82.9082 62.2715 83.1001 62.4214C83.2925 62.571 83.4526 62.7571 83.5728 62.969C83.6899 63.1677 83.7749 63.3838 83.8237 63.6091C83.8765 63.8425 83.9019 64.0811 83.8999 64.3203L83.8999 64.5288L82.4775 64.5288C82.5068 64.1511 82.4277 63.7729 82.25 63.4385C82.1694 63.3259 82.061 63.2363 81.9355 63.1782C81.8101 63.1201 81.6719 63.0955 81.5342 63.1064C81.3867 63.092 81.2378 63.1152 81.1016 63.1741C80.9658 63.2329 80.8467 63.3257 80.7568 63.4431C80.5693 63.7727 80.4849 64.1509 80.5146 64.5288L80.5146 66.8992C80.4878 67.3477 80.5674 67.7961 80.7471 68.2078C80.8271 68.3301 80.9346 68.4319 81.0615 68.5042C81.1885 68.5767 81.3311 68.6179 81.4766 68.6243C81.6226 68.6309 81.7681 68.6025 81.9009 68.5415C82.0337 68.4807 82.1504 68.3889 82.2407 68.2742C82.4219 67.9373 82.5039 67.5559 82.4775 67.1743L82.4775 66.6765L81.5293 66.6765L81.5293 65.5671L83.8999 65.5671L83.8999 69.5825L82.7856 69.5825L82.7856 68.7388C82.6548 69.0452 82.4453 69.3118 82.1787 69.5115C81.8818 69.6931 81.5356 69.7793 81.188 69.7581C80.9082 69.7615 80.6304 69.7065 80.3726 69.5969C80.1172 69.4878 79.8882 69.3262 79.6992 69.1228C79.479 68.8794 79.3169 68.5894 79.2251 68.2742C79.1113 67.8816 79.0571 67.4739 79.064 67.0652Z" fill="#6B99C3" fill-opacity="1.000000" fill-rule="nonzero"/>
	</g>
</svg>
