<svg width="66" height="41" viewBox="0 0 66 41" fill="none" xmlns="http://www.w3.org/2000/svg">
<g clip-path="url(#clip0_216_3497)">
<path d="M5.35499 33.2768L0 20.9233H4.13907L8.06679 30.3124H8.22324L12.1537 20.9233H16.29L10.935 33.2768H5.35499Z" fill="#6B99C3"/>
<path d="M21.1393 25.3227C20.9113 25.4526 20.6651 25.5466 20.4092 25.6013C20.0849 25.6809 19.752 25.7193 19.4184 25.7155C19.0865 25.7196 18.7554 25.6812 18.433 25.6013C18.1809 25.5457 17.9384 25.4518 17.7139 25.3227H17.5574V33.2797H21.293V25.3227H21.1393ZM21.1119 21.0516C20.6191 20.6963 20.0297 20.5054 19.4252 20.5054C18.8208 20.5054 18.2313 20.6963 17.7386 21.0516C17.5455 21.2237 17.3908 21.4356 17.2848 21.6732C17.1788 21.9107 17.124 22.1685 17.124 22.4293C17.124 22.6901 17.1788 22.9479 17.2848 23.1855C17.3908 23.4231 17.5455 23.635 17.7386 23.8071C18.2307 24.164 18.8204 24.3559 19.4252 24.3559C20.0301 24.3559 20.6198 24.164 21.1119 23.8071C21.3058 23.6355 21.4612 23.4238 21.5677 23.1861C21.6742 22.9485 21.7293 22.6904 21.7293 22.4293C21.7293 22.1683 21.6742 21.9102 21.5677 21.6726C21.4612 21.4349 21.3058 21.2232 21.1119 21.0516Z" fill="#6B99C3"/>
<path d="M27.497 33.5415C26.1191 33.5415 25.0468 33.17 24.2801 32.4271C23.5171 31.6943 23.1328 30.6245 23.1328 29.2259V20.7812H26.8711V23.2191H29.8904V24.4895H26.8711V28.9723C26.858 29.1809 26.8883 29.39 26.9602 29.5859C27.0321 29.7818 27.1439 29.9601 27.2884 30.1091C27.6112 30.3892 28.0281 30.532 28.4521 30.5075C28.9355 30.5072 29.4162 30.4359 29.8794 30.2957V33.2434C29.4872 33.3458 29.0894 33.4249 28.6882 33.4802C28.2927 33.5251 27.8949 33.5456 27.497 33.5415Z" fill="#6B99C3"/>
<path d="M34.8551 33.5416C33.673 33.5416 32.7773 33.2918 32.168 32.7921C31.8729 32.5575 31.6365 32.2556 31.4777 31.911C31.3189 31.5664 31.2423 31.1887 31.254 30.8084C31.2386 30.3638 31.3401 29.923 31.548 29.5313C31.7559 29.1396 32.0627 28.8111 32.4369 28.5796C33.2256 28.0558 34.5239 27.7651 36.3317 27.7075C36.9862 27.6991 37.6397 27.6516 38.2887 27.5654C38.5926 27.5379 38.8877 27.4479 39.1561 27.3007C39.2247 27.2545 39.2808 27.1915 39.3192 27.1175C39.3575 27.0435 39.377 26.9609 39.3756 26.8773C39.3746 26.7886 39.3552 26.7011 39.3188 26.6205C39.2824 26.5399 39.2298 26.4679 39.1643 26.4092C38.9446 26.2364 38.6846 26.1241 38.4095 26.0832C37.9137 25.989 37.4096 25.948 36.9054 25.9606C35.9714 25.9587 35.0407 26.0709 34.1332 26.295C33.3925 26.4622 32.6719 26.7107 31.9841 27.0361V24.0132C32.6776 23.6754 33.4109 23.4291 34.1661 23.2804C35.1805 23.0571 36.216 22.9478 37.254 22.9545C38.3918 22.9186 39.527 23.0855 40.608 23.4476C41.3678 23.6957 42.0332 24.1765 42.5129 24.8239C42.9233 25.4438 43.1333 26.178 43.114 26.9246V33.2769H39.3756V31.9006H39.2357C38.9363 32.2026 38.5973 32.4614 38.2283 32.6695C37.7488 32.9432 37.2369 33.1539 36.705 33.2964C36.1021 33.4627 35.4798 33.5452 34.8551 33.5416ZM36.5925 31.0174C37.3332 31.0229 38.065 30.8541 38.7306 30.5243C38.9639 30.414 39.1809 30.2714 39.3756 30.1008V28.496C39.2474 28.5764 39.1101 28.641 38.9667 28.6882C38.723 28.7733 38.4722 28.8358 38.2174 28.8749C37.8696 28.9322 37.5184 28.9648 37.1661 28.9724C36.6334 28.9618 36.1058 29.0792 35.6263 29.3151C35.4906 29.3874 35.3765 29.4953 35.2958 29.6276C35.2152 29.7599 35.1711 29.9118 35.168 30.0673C35.1655 30.2032 35.1957 30.3377 35.2559 30.4591C35.3162 30.5804 35.4047 30.685 35.5138 30.7638C35.8398 30.9573 36.2159 31.0457 36.5925 31.0174Z" fill="#6B99C3"/>
<path d="M48.5626 20.5723H44.8242V33.2796H48.5626V20.5723Z" fill="#6B99C3"/>
<path d="M57.5214 26.3955H50.3439V29.0952H57.5214V26.3955Z" fill="#6B99C3"/>
<path d="M57.4823 40.9051C56.1809 40.8938 54.8875 40.6978 53.6396 40.3228V37.1634C54.2064 37.353 54.785 37.5037 55.3716 37.6148C55.8344 37.691 56.3025 37.7292 56.7714 37.729C57.7101 37.729 58.4182 37.5061 58.9096 37.0575C59.4009 36.609 59.6396 35.9292 59.6396 35.0098V20.9233H63.378V35.1324C63.378 37.0269 62.8647 38.4627 61.8382 39.4397C60.8117 40.4166 59.3597 40.9051 57.4823 40.9051Z" fill="#6B99C3"/>
<path d="M58.7706 8.6676C57.833 8.61409 56.8955 8.77303 56.0259 9.13288C54.379 9.88791 54.2418 11.2921 54.2418 11.2921C52.9326 19.4971 43.0295 17.3769 43.0295 17.3769C48.7304 15.878 50.9262 10.6903 51.0552 10.356C45.2061 17.806 36.508 17.6694 33.272 17.3212L31.7542 15.1675L35.4431 15.148C36.6295 15.1416 37.7763 14.7138 38.6846 13.9389L47.9069 6.0654C47.5035 5.4664 46.7514 4.80052 45.8292 4.09843C54.4751 2.91156 54.6123 7.36929 54.6123 7.36929C56.0474 7.62709 57.4445 8.068 58.7706 8.68154" fill="#6B99C3"/>
<path d="M45.6913 22.4306L43.0261 17.3767L44.544 17.3711L46.4323 22.0629L45.6913 22.4306Z" fill="#6B99C3"/>
<path d="M58.3582 5.89287C58.5286 5.70436 58.7121 5.52839 58.9071 5.3663C59.0822 5.22688 59.2655 5.09848 59.4561 4.98182C60.2387 4.52583 60.8382 3.80484 61.1496 2.94519C61.2825 2.63787 61.3185 2.29635 61.2527 1.96744C61.1869 1.63853 61.0225 1.33832 60.782 1.10796C60.5415 0.877604 60.2368 0.728365 59.9095 0.680697C59.5822 0.633029 59.2484 0.689266 58.9538 0.841699C58.74 0.953119 58.5587 1.1196 58.4282 1.32446C58.2976 1.52933 58.2224 1.76541 58.21 2.00907C58.316 1.938 58.4431 1.90648 58.5695 1.91991C58.6745 1.93226 58.7738 1.97512 58.8554 2.04335C58.937 2.11159 58.9975 2.20229 59.0295 2.30456C59.0616 2.40683 59.0638 2.51632 59.0361 2.61986C59.0083 2.7234 58.9516 2.8166 58.8729 2.88826C58.7942 2.95991 58.6968 3.00696 58.5924 3.02377C58.488 3.04058 58.381 3.02642 58.2843 2.983C58.1876 2.93958 58.1053 2.86875 58.0473 2.77901C57.9894 2.68927 57.9582 2.58444 57.9575 2.47713C57.8916 1.75553 58.1468 0.93364 58.8358 0.610454C59.8733 0.0699538 61.3445 0.71354 61.5284 1.91713C61.6683 2.83375 61.2237 3.6835 60.6802 4.39674C61.081 4.25174 61.4946 4.14631 61.9154 4.08192C63.4881 3.80331 64.4927 2.34897 63.9135 0.886278C63.8586 0.967529 63.7834 1.03253 63.6956 1.07465C63.6078 1.11678 63.5106 1.13451 63.4139 1.12605C63.3171 1.11759 63.2243 1.08324 63.145 1.0265C63.0656 0.969754 63.0024 0.892651 62.962 0.803056C62.9215 0.71346 62.9052 0.614576 62.9147 0.516489C62.9241 0.418402 62.9591 0.324625 63.0159 0.244717C63.0727 0.164809 63.1495 0.10163 63.2382 0.0616292C63.3269 0.0216283 63.4245 0.00623429 63.521 0.0170169C63.5994 0.0266241 63.6747 0.0532501 63.742 0.0950779C63.8092 0.136906 63.8668 0.192956 63.9108 0.259409C64.8468 1.67753 64.3088 3.2433 63.0627 4.01505C63.5886 4.02589 64.1108 4.10644 64.6162 4.25465C67.3856 5.43038 65.4396 8.73467 62.898 7.428C62.7903 7.37835 62.7013 7.29471 62.6442 7.18954C62.5871 7.08438 62.565 6.9633 62.5812 6.84436C62.5974 6.72542 62.651 6.61497 62.7341 6.52946C62.8171 6.44395 62.9251 6.38796 63.0421 6.36983C63.159 6.35169 63.2786 6.37238 63.383 6.42882C63.4874 6.48526 63.5711 6.57442 63.6215 6.68303C63.672 6.79164 63.6865 6.91388 63.6629 7.03156C63.6394 7.14923 63.579 7.25603 63.4909 7.33606C63.7592 7.42425 64.0442 7.4475 64.323 7.40396C64.6018 7.36042 64.8667 7.2513 65.0965 7.08531C65.3799 6.86811 65.5676 6.54632 65.619 6.18964C65.6704 5.83296 65.5813 5.4701 65.371 5.17963C64.9126 4.58341 64.1139 4.38838 63.3893 4.36052C61.8714 4.30202 60.2905 4.68371 59.0965 5.6672C58.9565 5.78421 58.822 5.9068 58.6958 6.03496C58.8771 6.00133 59.0635 6.00823 59.2419 6.05518C59.4204 6.10213 59.5866 6.188 59.729 6.30682C59.8714 6.42564 59.9865 6.57454 60.0664 6.74315C60.1463 6.91176 60.1891 7.09603 60.1917 7.28312C60.1931 7.31004 60.1931 7.33701 60.1917 7.36392V7.38621V7.41128C60.1791 7.52057 60.135 7.62363 60.0648 7.70748C59.9946 7.79134 59.9015 7.85222 59.7973 7.88246C59.6931 7.91271 59.5824 7.91096 59.4792 7.87744C59.3759 7.84391 59.2848 7.78012 59.2172 7.69409C59.1496 7.60806 59.1087 7.50365 59.0995 7.39402C59.0903 7.28439 59.1132 7.17445 59.1655 7.07806C59.2178 6.98167 59.297 6.90314 59.3931 6.85237C59.4893 6.8016 59.5981 6.78086 59.7059 6.79277C59.7318 6.79672 59.7575 6.8023 59.7827 6.80949C59.692 6.67848 59.574 6.56938 59.437 6.48995C59.3 6.41052 59.1475 6.36272 58.9902 6.34995C58.833 6.33718 58.6749 6.35976 58.5272 6.41607C58.3796 6.47239 58.2459 6.56105 58.1359 6.67576C57.0215 8.13845 56.5192 10.072 56.4396 11.8997H56.0471C56.0789 11.087 56.2004 10.2804 56.4094 9.49527C56.6807 8.46178 57.1376 7.48799 57.7571 6.62282C57.9452 6.37115 58.1458 6.12938 58.3582 5.89844" fill="#6B99C3"/>
<path d="M56.0225 9.12988C54.3756 9.88491 54.2384 11.2891 54.2384 11.2891C52.9291 19.4941 43.0261 17.3739 43.0261 17.3739C48.7269 15.875 50.9227 10.6873 51.0517 10.353C51.0517 10.353 52.1634 9.51715 56.0225 9.12988Z" fill="#E4E5EA"/>
<path d="M46.9376 14.1978C46.9376 14.1978 42.4719 18.4827 30.546 17.7974L29.4838 16.2316C29.4838 16.2316 40.2239 17.998 46.9485 14.1978" fill="#E4E5EA"/>
<path d="M5.37158 40.8914V36.4922H7.69089V37.1636H6.195V38.1889H7.56737V38.8604H6.195V40.2255H7.69089V40.8914H5.37158Z" fill="#6B99C3"/>
<path d="M9.41235 40.8914V36.4922H10.7271L11.3062 39.3619L11.8826 36.4922H13.1946V40.8914H12.4316V36.9101H12.4096L11.5862 40.9026H11.0043L10.1809 36.9212V40.8914H9.41235Z" fill="#6B99C3"/>
<path d="M14.9919 40.8916V36.4924H16.5482C16.7622 36.4884 16.9725 36.5496 17.1521 36.6679C17.3258 36.7808 17.4647 36.9411 17.5528 37.1304C17.6449 37.3338 17.6909 37.5557 17.6873 37.7795C17.6896 38.0081 17.6427 38.2344 17.55 38.4426C17.4615 38.6386 17.3209 38.8055 17.1438 38.9246C16.9633 39.0455 16.7507 39.1077 16.5345 39.1029H15.8126V40.8916H14.9919ZM15.8154 38.4454H16.2298C16.3146 38.452 16.3998 38.4402 16.4797 38.4109C16.5597 38.3816 16.6326 38.3355 16.6937 38.2755C16.806 38.1396 16.8621 37.9648 16.8501 37.7879C16.8618 37.6127 16.8057 37.4398 16.6937 37.3059C16.6321 37.2468 16.559 37.2014 16.4791 37.1727C16.3993 37.1439 16.3143 37.1323 16.2298 37.1387H15.8154V38.4454Z" fill="#6B99C3"/>
<path d="M19.4324 39.5178V37.9213C19.4272 37.6832 19.4615 37.4458 19.534 37.2192C19.5914 37.0406 19.6924 36.8796 19.8276 36.7512C19.9559 36.6342 20.1076 36.5467 20.2723 36.4949C20.6464 36.3871 21.0427 36.3871 21.4168 36.4949C21.5788 36.5448 21.7278 36.6304 21.8533 36.7456C21.988 36.8734 22.0874 37.0347 22.1415 37.2137C22.2094 37.4431 22.2419 37.6818 22.2375 37.9213V39.5178C22.2419 39.7564 22.2095 39.9942 22.1415 40.2226C22.0875 40.3999 21.9869 40.5588 21.8505 40.6823C21.7239 40.794 21.575 40.8766 21.4141 40.9247C21.2284 40.9778 21.0361 41.0031 20.8432 41C19.9027 41 19.4324 40.5059 19.4324 39.5178ZM20.2723 39.6208C20.2723 40.0945 20.4617 40.3313 20.8432 40.3313C20.9208 40.3355 20.9983 40.321 21.0694 40.289C21.1404 40.2571 21.2031 40.2086 21.2522 40.1474C21.3587 39.994 21.41 39.8081 21.3976 39.6208V37.8266C21.41 37.6298 21.359 37.4342 21.2522 37.2694C21.2055 37.2046 21.1436 37.1527 21.0723 37.1181C21.0009 37.0836 20.9222 37.0676 20.8432 37.0716C20.4617 37.0716 20.2723 37.3168 20.2723 37.8099V39.6208Z" fill="#6B99C3"/>
<path d="M23.8265 36.4922H24.65L25.1495 40.1698L25.6985 36.4922H26.5713L27.1202 40.1698L27.6143 36.4922H28.4377L27.7378 40.8914H26.585L26.1541 37.8267L25.7067 40.8914H24.5429L23.8265 36.4922Z" fill="#6B99C3"/>
<path d="M30.0103 40.8914V36.4922H32.3323V37.1636H30.8364V38.1889H32.2088V38.8604H30.8364V40.2255H32.3323V40.8914H30.0103Z" fill="#6B99C3"/>
<path d="M34.0459 40.8913V36.4921H35.7339C35.8793 36.486 36.0243 36.512 36.1589 36.5683C36.2934 36.6246 36.4144 36.7098 36.5134 36.818C36.7105 37.0409 36.8156 37.3322 36.8071 37.6316C36.8214 37.8885 36.7644 38.1443 36.6424 38.3699C36.5954 38.4521 36.5308 38.5226 36.4534 38.5762C36.3759 38.6297 36.2876 38.6649 36.195 38.6791C36.2996 38.698 36.3994 38.7378 36.4887 38.7962C36.5648 38.8449 36.628 38.9119 36.6726 38.9912C36.7138 39.0624 36.7443 39.1394 36.7632 39.2196C36.7809 39.3001 36.7901 39.3823 36.7906 39.4648V40.3898C36.7919 40.4422 36.7974 40.4944 36.8071 40.5458C36.8155 40.5837 36.8265 40.6209 36.84 40.6573C36.85 40.6892 36.8691 40.7173 36.8949 40.7381C36.9193 40.7547 36.948 40.7634 36.9773 40.7631V40.8913H36.1539C36.074 40.7911 36.0153 40.6754 35.9813 40.5513C35.9473 40.4272 35.9388 40.2973 35.9562 40.1697V39.6626C35.9632 39.5016 35.9241 39.3419 35.8437 39.2029C35.8016 39.1421 35.7444 39.0935 35.6779 39.0622C35.6114 39.0309 35.5379 39.0179 35.4649 39.0246H34.8638V40.8913H34.0459ZM34.8693 38.3838H35.4183C35.5711 38.3894 35.7203 38.3356 35.8355 38.2334C35.8959 38.1672 35.9418 38.0888 35.9702 38.0033C35.9986 37.9179 36.0088 37.8272 36.0002 37.7374C36.0098 37.6517 36.0013 37.5649 35.9753 37.4827C35.9492 37.4006 35.9063 37.325 35.8492 37.261C35.7198 37.1631 35.56 37.1156 35.3991 37.1273H34.8666L34.8693 38.3838Z" fill="#6B99C3"/>
<path d="M38.6156 40.8914V36.4922H39.439V40.8914H38.6156Z" fill="#6B99C3"/>
<path d="M41.25 40.8914V36.4922H42.1393L43.3415 39.6962C43.2616 39.1531 43.2276 38.6041 43.2399 38.0552V36.4922H43.9947V40.8914H43.1054L41.9032 37.6958C41.9858 38.2367 42.0198 38.7841 42.0048 39.3312V40.8914H41.25Z" fill="#6B99C3"/>
<path d="M45.7738 39.4118V37.9742C45.7425 37.5536 45.8712 37.1368 46.1333 36.8096C46.2741 36.6706 46.4422 36.5634 46.6268 36.4952C46.8113 36.427 47.0079 36.3993 47.2038 36.414C47.3842 36.4108 47.564 36.4372 47.7363 36.492C47.8722 36.5299 47.9993 36.5947 48.1105 36.6827C48.2217 36.7707 48.3146 36.8801 48.384 37.0046C48.4519 37.1213 48.501 37.2483 48.5295 37.3807C48.5599 37.5179 48.5746 37.6581 48.5734 37.7986V37.9212H47.75C47.7669 37.6993 47.7212 37.477 47.6182 37.2804C47.5716 37.2144 47.5089 37.1617 47.4363 37.1275C47.3637 37.0934 47.2836 37.0788 47.2038 37.0854C47.1184 37.0768 47.0322 37.0905 46.9535 37.1251C46.8747 37.1597 46.8059 37.2141 46.7536 37.2832C46.6452 37.4769 46.5964 37.6991 46.6137 37.9212V39.3143C46.598 39.5778 46.6441 39.8413 46.7481 40.0832C46.7943 40.1552 46.8568 40.2149 46.9302 40.2575C47.0037 40.3 47.0861 40.3242 47.1706 40.328C47.2551 40.3318 47.3393 40.3152 47.4162 40.2794C47.4931 40.2436 47.5604 40.1897 47.6127 40.1222C47.7177 39.9243 47.7653 39.7002 47.75 39.4759V39.1833H47.201V38.5314H48.5734V40.8912H47.9284V40.3953C47.8526 40.5753 47.7314 40.732 47.5771 40.8494C47.405 40.9561 47.2047 41.0067 47.0034 40.9943C46.8413 40.9963 46.6805 40.964 46.5313 40.8995C46.3836 40.8355 46.2508 40.7405 46.1416 40.6209C46.014 40.478 45.9202 40.3074 45.8671 40.1222C45.8011 39.8915 45.7697 39.652 45.7738 39.4118Z" fill="#6B99C3"/>
</g>
<defs>
<clipPath id="clip0_216_3497">
<rect width="66" height="41" fill="white"/>
</clipPath>
</defs>
</svg>
