<svg width="32.000000" height="32.000000" viewBox="0 0 32 32" fill="none" xmlns="http://www.w3.org/2000/svg" xmlns:xlink="http://www.w3.org/1999/xlink">
	<desc>
			Created with Pixso.
	</desc>
	<defs/>
	<rect id="Property 1=Brands, Property 2=Instagram" width="32.000000" height="32.000000" fill="#FFFFFF" fill-opacity="0"/>
	<path id="Subtract" d="M22.97 4.1C18.37 3.59 13.62 3.59 9.02 4.1C6.49 4.39 4.45 6.38 4.15 8.92C3.6 13.62 3.6 18.37 4.15 23.07C4.45 25.61 6.49 27.6 9.02 27.89C13.62 28.4 18.37 28.4 22.97 27.89C25.5 27.6 27.54 25.61 27.84 23.07C28.39 18.37 28.39 13.62 27.84 8.92C27.54 6.38 25.5 4.39 22.97 4.1ZM21.33 9.33C21.33 8.59 21.92 7.99 22.66 7.99C23.4 7.99 23.99 8.59 23.99 9.33C23.99 10.06 23.4 10.66 22.66 10.66C21.92 10.66 21.33 10.06 21.33 9.33ZM15.99 9.66C12.5 9.66 9.66 12.5 9.66 15.99C9.66 19.49 12.5 22.33 15.99 22.33C19.49 22.33 22.33 19.49 22.33 15.99C22.33 12.5 19.49 9.66 15.99 9.66ZM11.66 15.99C11.66 13.6 13.6 11.66 15.99 11.66C18.39 11.66 20.33 13.6 20.33 15.99C20.33 18.39 18.39 20.33 15.99 20.33C13.6 20.33 11.66 18.39 11.66 15.99Z" fill="#FCFCFC" fill-opacity="1.000000" fill-rule="evenodd"/>
</svg>
