<svg width="46.000000" height="46.000000" viewBox="0 0 46 46" fill="none" xmlns="http://www.w3.org/2000/svg" xmlns:xlink="http://www.w3.org/1999/xlink">
	<desc>
			Created with Pixso.
	</desc>
	<defs>
		<clipPath id="clip76_2732">
			<rect id="ic:outline-apple" width="27.000000" height="27.000000" transform="translate(9.000000 9.000000)" fill="white" fill-opacity="0"/>
		</clipPath>
	</defs>
	<circle id="Ellipse 51" cx="23.000000" cy="23.000000" r="23.000000" fill="#16344C" fill-opacity="1.000000"/>
	<rect id="ic:outline-apple" width="27.000000" height="27.000000" transform="translate(9.000000 9.000000)" fill="#FFFFFF" fill-opacity="0"/>
	<g clip-path="url(#clip76_2732)">
		<path id="Vector" d="M28.18 31.81C27.07 32.88 25.87 32.71 24.71 32.2C23.49 31.69 22.36 31.66 21.07 32.2C19.45 32.9 18.59 32.7 17.62 31.81C12.13 26.15 12.94 17.53 19.18 17.22C20.7 17.3 21.75 18.05 22.64 18.12C23.97 17.85 25.24 17.07 26.66 17.17C28.36 17.31 29.64 17.98 30.48 19.2C26.97 21.3 27.81 25.93 31.02 27.22C30.38 28.91 29.55 30.58 28.17 31.82L28.18 31.81ZM22.53 17.15C22.36 14.64 24.4 12.57 26.74 12.37C27.06 15.27 24.1 17.43 22.53 17.15Z" fill="#FCFCFC" fill-opacity="1.000000" fill-rule="nonzero"/>
	</g>
</svg>
