<svg width="16.000000" height="16.000000" viewBox="0 0 16 16" fill="none" xmlns="http://www.w3.org/2000/svg" xmlns:xlink="http://www.w3.org/1999/xlink">
	<desc>
			Created with Pixso.
	</desc>
	<defs>
		<clipPath id="clip79_1451">
			<rect id="ep:arrow-up-bold" width="16.000000" height="16.000000" transform="translate(16.000000 16.000000) rotate(180.000000)" fill="white" fill-opacity="0"/>
		</clipPath>
	</defs>
	<rect id="ep:arrow-up-bold" width="16.000000" height="16.000000" transform="translate(16.000000 16.000000) rotate(180.000000)" fill="#FFFFFF" fill-opacity="0"/>
	<g clip-path="url(#clip79_1451)">
		<path id="Vector" d="M14.36 5.29C14.17 5.1 13.92 5 13.65 5C13.39 5 13.13 5.1 12.95 5.29L8 10.24L3.05 5.29C2.86 5.1 2.6 5 2.34 5.01C2.08 5.01 1.83 5.11 1.64 5.3C1.46 5.49 1.35 5.74 1.35 6C1.35 6.26 1.45 6.51 1.63 6.7L7.29 12.36C7.48 12.55 7.73 12.65 8 12.65C8.26 12.65 8.51 12.55 8.7 12.36L14.36 6.7C14.55 6.51 14.65 6.26 14.65 6C14.65 5.73 14.55 5.48 14.36 5.29Z" fill="#B5E5F3" fill-opacity="1.000000" fill-rule="nonzero"/>
	</g>
</svg>
