<svg width="46.000000" height="46.000000" viewBox="0 0 46 46" fill="none" xmlns="http://www.w3.org/2000/svg" xmlns:xlink="http://www.w3.org/1999/xlink">
	<desc>
			Created with Pixso.
	</desc>
	<defs>
		<clipPath id="clip216_24091">
			<rect id="entypo-social:facebook-with-circle" width="46.000000" height="46.000000" fill="white" fill-opacity="0"/>
		</clipPath>
	</defs>
	<rect id="entypo-social:facebook-with-circle" width="46.000000" height="46.000000" fill="#FFFFFF" fill-opacity="0"/>
	<g clip-path="url(#clip216_24091)">
		<path id="Vector" d="M23 0.91C10.8 0.91 0.92 10.8 0.92 23C0.92 35.19 10.8 45.08 23 45.08C35.19 45.08 45.08 35.19 45.08 23C45.08 10.8 35.19 0.91 23 0.91ZM28.23 16.17L24.91 16.17C24.51 16.17 24.08 16.69 24.08 17.38L24.08 19.77L28.23 19.77L27.6 23.19L24.08 23.19L24.08 33.45L20.16 33.45L20.16 23.19L16.61 23.19L16.61 19.77L20.16 19.77L20.16 17.76C20.16 14.88 22.16 12.54 24.91 12.54L28.23 12.54L28.23 16.17Z" fill="#16344C" fill-opacity="1.000000" fill-rule="nonzero"/>
	</g>
</svg>
