<svg width="46.000000" height="46.000000" viewBox="0 0 46 46" fill="none" xmlns="http://www.w3.org/2000/svg" xmlns:xlink="http://www.w3.org/1999/xlink">
	<desc>
			Created with Pixso.
	</desc>
	<defs>
		<clipPath id="clip216_24090">
			<rect id="akar-icons:google-contained-fill" width="46.000000" height="46.000000" fill="white" fill-opacity="0"/>
		</clipPath>
	</defs>
	<rect id="akar-icons:google-contained-fill" width="46.000000" height="46.000000" fill="#FFFFFF" fill-opacity="0"/>
	<g clip-path="url(#clip216_24090)">
		<path id="Vector" d="M23 0C10.29 0 0 10.29 0 23C0 35.7 10.29 46 23 46C35.7 46 46 35.7 46 23C46 10.29 35.7 0 23 0ZM23.26 36.45C15.85 36.45 9.85 30.43 9.85 23C9.85 15.56 15.85 9.54 23.26 9.54C26.89 9.54 29.91 10.88 32.24 13.05L28.45 16.84L28.45 16.83C27.04 15.49 25.26 14.8 23.26 14.8C18.84 14.8 15.24 18.55 15.24 22.99C15.24 27.42 18.84 31.18 23.26 31.18C27.28 31.18 30.01 28.88 30.58 25.72L23.26 25.72L23.26 20.47L35.88 20.47C36.05 21.37 36.14 22.31 36.14 23.3C36.14 30.98 31.01 36.45 23.26 36.45Z" fill="#16344C" fill-opacity="1.000000" fill-rule="evenodd"/>
	</g>
</svg>
