<svg width="24.000000" height="24.000000" viewBox="0 0 24 24" fill="none" xmlns="http://www.w3.org/2000/svg" xmlns:xlink="http://www.w3.org/1999/xlink">
	<desc>
			Created with Pixso.
	</desc>
	<defs/>
	<path id="Icon" d="M10 2.25C9.58 2.25 9.25 2.58 9.25 3L9.25 3.75L5 3.75C4.58 3.75 4.25 4.08 4.25 4.5C4.25 4.91 4.58 5.25 5 5.25L19 5.25C19.41 5.25 19.75 4.91 19.75 4.5C19.75 4.08 19.41 3.75 19 3.75L14.75 3.75L14.75 3C14.75 2.58 14.41 2.25 14 2.25L10 2.25ZM6.73 7.5C6.48 7.5 6.26 7.69 6.23 7.94L6.03 9.74C5.67 12.99 5.67 16.27 6.03 19.51L6.05 19.69C6.19 20.87 7.1 21.82 8.28 21.98C10.74 22.33 13.25 22.33 15.71 21.98C16.89 21.82 17.8 20.87 17.94 19.69L17.96 19.51C18.32 16.27 18.32 12.99 17.96 9.74L17.76 7.94C17.73 7.69 17.51 7.5 17.26 7.5L6.73 7.5ZM10 10.65C10.41 10.65 10.75 10.98 10.75 11.4L10.75 18.4C10.75 18.81 10.41 19.15 10 19.15C9.58 19.15 9.25 18.81 9.25 18.4L9.25 11.4C9.25 10.98 9.58 10.65 10 10.65ZM14 10.65C14.41 10.65 14.75 10.98 14.75 11.4L14.75 18.4C14.75 18.81 14.41 19.15 14 19.15C13.58 19.15 13.25 18.81 13.25 18.4L13.25 11.4C13.25 10.98 13.58 10.65 14 10.65Z" fill="#272727" fill-opacity="1.000000" fill-rule="evenodd"/>
</svg>
