<svg width="11.000000" height="11.000000" viewBox="0 0 11 11" fill="none" xmlns="http://www.w3.org/2000/svg" xmlns:xlink="http://www.w3.org/1999/xlink">
	<desc>
			Created with Pixso.
	</desc>
	<defs/>
	<path id="Union" d="M10.42 0.99C10.81 0.6 10.81 -0.04 10.42 -0.43C10.03 -0.82 9.39 -0.82 9 -0.43L4.99 3.58L0.99 -0.43C0.6 -0.82 -0.04 -0.82 -0.43 -0.43C-0.82 -0.04 -0.82 0.6 -0.43 0.99L3.58 5L-0.43 9C-0.82 9.39 -0.82 10.03 -0.43 10.42C-0.04 10.81 0.6 10.81 0.99 10.42L4.99 6.41L9 10.42C9.39 10.81 10.03 10.81 10.42 10.42C10.81 10.03 10.81 9.39 10.42 9L6.41 5L10.42 0.99Z" fill="#272727" fill-opacity="1.000000" fill-rule="nonzero"/>
</svg>
