<svg width="24.000000" height="24.000000" viewBox="0 0 24 24" fill="none" xmlns="http://www.w3.org/2000/svg" xmlns:xlink="http://www.w3.org/1999/xlink">
	<desc>
			Created with Pixso.
	</desc>
	<defs/>
	<rect id="Solid" width="24.000000" height="24.000000" transform="translate(-0.999268 0.000000)" fill="#FFFFFF" fill-opacity="0"/>
	<path id="Icon" d="M13.96 3.64C13.86 3.55 13.74 3.5 13.6 3.5C13.47 3.5 13.34 3.55 13.25 3.64L4.06 12.83C3.99 12.9 3.95 12.98 3.93 13.06L2.93 16.89C2.88 17.06 2.93 17.24 3.06 17.37C3.18 17.5 3.36 17.54 3.54 17.5L7.36 16.5C7.45 16.48 7.53 16.43 7.59 16.37L16.78 7.18C16.98 6.98 16.98 6.66 16.78 6.47L13.96 3.64ZM2.25 20C2.25 19.58 2.58 19.25 3 19.25L18 19.25C18.41 19.25 18.75 19.58 18.75 20C18.75 20.41 18.41 20.75 18 20.75L3 20.75C2.58 20.75 2.25 20.41 2.25 20Z" fill="#3B619A" fill-opacity="1.000000" fill-rule="evenodd"/>
</svg>
