<svg width="20" height="13" viewBox="0 0 20 13" fill="none" xmlns="http://www.w3.org/2000/svg">
<path fill-rule="evenodd" clip-rule="evenodd" d="M19.9386 1.79199C19.9386 1.17067 19.4611 0.666992 18.872 0.666992H17.8053C17.2162 0.666992 16.7386 1.17067 16.7386 1.79199V11.542C16.7386 12.1633 17.2162 12.667 17.8053 12.667H18.872C19.4611 12.667 19.9386 12.1633 19.9386 11.542V1.79199ZM12.5053 3.06699H13.572C14.1611 3.06699 14.6386 3.58276 14.6386 4.21899V11.515C14.6386 12.1512 14.1611 12.667 13.572 12.667H12.5053C11.9162 12.667 11.4386 12.1512 11.4386 11.515V4.21899C11.4386 3.58276 11.9162 3.06699 12.5053 3.06699ZM8.17198 5.66699H7.10531C6.51621 5.66699 6.03865 6.18933 6.03865 6.83366V11.5003C6.03865 12.1447 6.51621 12.667 7.10531 12.667H8.17198C8.76108 12.667 9.23865 12.1447 9.23865 11.5003V6.83366C9.23865 6.18933 8.76108 5.66699 8.17198 5.66699ZM2.87198 8.06699H1.80531C1.21621 8.06699 0.738647 8.58186 0.738647 9.21699V11.517C0.738647 12.1521 1.21621 12.667 1.80531 12.667H2.87198C3.46108 12.667 3.93865 12.1521 3.93865 11.517V9.21699C3.93865 8.58186 3.46108 8.06699 2.87198 8.06699Z" fill="#FCFCFC"/>
</svg>
