<svg width="18" height="13" viewBox="0 0 18 13" fill="none" xmlns="http://www.w3.org/2000/svg">
<path fill-rule="evenodd" clip-rule="evenodd" d="M8.83921 3.0676C11.3058 3.0677 13.678 3.96523 15.4656 5.57467C15.6002 5.69893 15.8154 5.69736 15.948 5.57116L17.2347 4.34134C17.3019 4.27733 17.3393 4.19063 17.3387 4.10041C17.3382 4.0102 17.2997 3.92392 17.2318 3.86066C12.5399 -0.397562 5.13782 -0.397562 0.445908 3.86066C0.377942 3.92387 0.33938 4.01013 0.338753 4.10034C0.338126 4.19055 0.375487 4.27728 0.442569 4.34134L1.72971 5.57116C1.8622 5.69755 2.07753 5.69912 2.21206 5.57467C3.9999 3.96512 6.37241 3.06759 8.83921 3.0676ZM8.83744 7.17548C10.1835 7.1754 11.4816 7.67351 12.4794 8.57303C12.6144 8.7007 12.827 8.69793 12.9585 8.5668L14.2352 7.28262C14.3024 7.21526 14.3397 7.12389 14.3387 7.02893C14.3378 6.93398 14.2986 6.84337 14.23 6.77739C11.1915 3.96353 6.48597 3.96353 3.44746 6.77739C3.37882 6.84337 3.33966 6.93402 3.33876 7.02901C3.33786 7.12399 3.37529 7.21536 3.44267 7.28262L4.71894 8.5668C4.8505 8.69793 5.06309 8.7007 5.19805 8.57303C6.19519 7.67411 7.49223 7.17604 8.83744 7.17548ZM11.3387 9.89464C11.3406 9.99719 11.3038 10.0961 11.2371 10.1679L9.07841 12.5573C9.01513 12.6275 8.92886 12.667 8.83884 12.667C8.74882 12.667 8.66255 12.6275 8.59927 12.5573L6.44023 10.1679C6.37353 10.096 6.33684 9.9971 6.33882 9.89456C6.3408 9.79201 6.38127 9.69491 6.45068 9.62617C7.82929 8.34727 9.84839 8.34727 11.227 9.62617C11.2964 9.69496 11.3368 9.7921 11.3387 9.89464Z" fill="#FCFCFC"/>
</svg>
