<svg aria-hidden="true" style="position: absolute; width: 0; height: 0; overflow: hidden;" version="1.1" xmlns="http://www.w3.org/2000/svg" xmlns:xlink="http://www.w3.org/1999/xlink">
<defs>
    <symbol id="icon-Time-iPhone" viewBox="0 0 82 32">
<path fill="#fcfcfc" style="fill: var(--color1, #fcfcfc)" d="M22.672 7.197c-3.959 0-6.78 2.707-6.78 6.413v0.025c0 3.466 2.454 6.021 5.958 6.021 2.504 0 4.098-1.278 4.768-2.72h0.253c0 0.139-0.013 0.278-0.013 0.418-0.139 3.491-1.366 6.324-4.263 6.324-1.606 0-2.732-0.835-3.213-2.112l-0.038-0.126h-3.213l0.025 0.139c0.582 2.795 3.086 4.781 6.438 4.781 4.592 0 7.362-3.643 7.362-9.79v-0.025c0-6.577-3.39-9.347-7.286-9.347zM22.66 17.152c-2.074 0-3.58-1.518-3.58-3.63v-0.025c0-2.036 1.606-3.643 3.618-3.643 2.024 0 3.605 1.632 3.605 3.719v0.025c0 2.062-1.581 3.554-3.643 3.554zM35.079 14.078c1.164 0 2.011-0.885 2.011-1.998 0-1.126-0.847-1.999-2.011-1.999-1.151 0-2.011 0.873-2.011 1.999 0 1.113 0.86 1.998 2.011 1.998zM35.079 23.463c1.164 0 2.011-0.873 2.011-1.998s-0.847-1.998-2.011-1.998c-1.151 0-2.011 0.873-2.011 1.998s0.86 1.998 2.011 1.998zM49.054 25.905h3.124v-3.504h2.454v-2.694h-2.454v-12.054h-4.617c-2.479 3.769-5.072 7.969-7.437 12.080v2.669h8.93v3.504zM43.159 19.783v-0.19c1.771-3.099 3.883-6.476 5.755-9.335h0.19v9.525h-5.945zM61.574 25.905h3.263v-18.252h-3.251l-4.769 3.352v3.074l4.541-3.213h0.215v15.039z"></path>
</symbol>
<symbol id="icon-Cellular-Connection" viewBox="0 0 49 32">
<path fill="#fcfcfc" style="fill: var(--color1, #fcfcfc)" d="M49.080 4.411c0-1.529-1.175-2.769-2.625-2.769h-2.626c-1.45 0-2.626 1.24-2.626 2.769v24c0 1.529 1.176 2.769 2.626 2.769h2.626c1.45 0 2.625-1.24 2.625-2.769v-24zM30.782 7.55h2.626c1.45 0 2.625 1.27 2.625 2.836v17.959c0 1.566-1.175 2.836-2.625 2.836h-2.626c-1.45 0-2.626-1.27-2.626-2.836v-17.959c0-1.566 1.176-2.836 2.626-2.836zM20.116 13.95h-2.626c-1.45 0-2.626 1.286-2.626 2.872v11.487c0 1.586 1.176 2.872 2.626 2.872h2.626c1.45 0 2.626-1.286 2.626-2.872v-11.487c0-1.586-1.176-2.872-2.626-2.872zM7.069 19.857h-2.626c-1.45 0-2.626 1.267-2.626 2.831v5.662c0 1.563 1.176 2.831 2.626 2.831h2.626c1.45 0 2.626-1.267 2.626-2.831v-5.662c0-1.563-1.176-2.831-2.626-2.831z"></path>
</symbol>
<symbol id="icon-Wifi" viewBox="0 0 44 32">
<path fill="#fcfcfc" style="fill: var(--color1, #fcfcfc)" d="M21.758 7.551c6.072 0 11.911 2.21 16.311 6.171 0.331 0.306 0.861 0.302 1.187-0.009l3.167-3.027c0.165-0.158 0.257-0.371 0.256-0.593s-0.096-0.434-0.263-0.59c-11.549-10.482-29.77-10.482-41.319 0-0.167 0.156-0.262 0.368-0.264 0.59s0.090 0.436 0.256 0.593l3.168 3.027c0.326 0.311 0.856 0.315 1.187 0.009 4.401-3.962 10.241-6.171 16.313-6.171zM21.754 17.663c3.313-0 6.509 1.226 8.965 3.44 0.332 0.314 0.856 0.307 1.179-0.015l3.143-3.161c0.165-0.166 0.257-0.391 0.255-0.624s-0.099-0.457-0.268-0.619c-7.479-6.926-19.062-6.926-26.542 0-0.169 0.162-0.265 0.386-0.268 0.619s0.090 0.459 0.256 0.624l3.142 3.161c0.324 0.323 0.847 0.33 1.179 0.015 2.454-2.213 5.647-3.439 8.958-3.44zM27.911 24.356c0.005 0.252-0.086 0.496-0.25 0.673l-5.314 5.882c-0.156 0.173-0.368 0.27-0.59 0.27s-0.434-0.097-0.59-0.27l-5.315-5.882c-0.164-0.177-0.255-0.42-0.25-0.673s0.104-0.491 0.275-0.661c3.393-3.148 8.364-3.148 11.757 0 0.171 0.169 0.27 0.408 0.275 0.661z"></path>
</symbol>
<symbol id="icon-Battery" viewBox="0 0 69 32">
<path fill="none" opacity="0.35" stroke="#fcfcfc" style="stroke: var(--color1, #fcfcfc)" stroke-linejoin="miter" stroke-linecap="butt" stroke-miterlimit="4" stroke-width="2.4615" d="M10.27 1.231h44.308c4.078 0 7.385 3.306 7.385 7.385v14.769c0 4.078-3.306 7.385-7.385 7.385h-44.308c-4.078 0-7.385-3.306-7.385-7.385v-14.769c0-4.078 3.306-7.385 7.385-7.385z"></path>
<path fill="#fcfcfc" style="fill: var(--color1, #fcfcfc)" opacity="0.4" d="M65.654 11.487v9.846c1.981-0.834 3.269-2.774 3.269-4.923s-1.288-4.089-3.269-4.923z"></path>
<path fill="#fcfcfc" style="fill: var(--color1, #fcfcfc)" d="M9.859 4.923h45.128c1.813 0 3.282 1.469 3.282 3.282v15.59c0 1.813-1.469 3.282-3.282 3.282h-45.128c-1.813 0-3.282-1.469-3.282-3.282v-15.59c0-1.813 1.469-3.282 3.282-3.282z"></path>
</symbol>
    <symbol id="icon-Account" viewBox="0 0 32 32">
<path  d="M16 5c-2.761 0-5 2.239-5 5s2.239 5 5 5c2.761 0 5-2.239 5-5s-2.239-5-5-5z"></path>
<path  d="M10.667 17.667c-2.761 0-5 2.239-5 5v1.584c0 1.004 0.728 1.861 1.719 2.022 5.705 0.931 11.524 0.931 17.229 0 0.991-0.162 1.719-1.018 1.719-2.022v-1.584c0-2.761-2.239-5-5-5h-0.455c-0.246 0-0.49 0.039-0.724 0.115l-1.154 0.377c-1.95 0.637-4.051 0.637-6.001 0l-1.154-0.377c-0.234-0.076-0.478-0.115-0.724-0.115h-0.454z"></path>
</symbol>
<symbol id="icon-Heart" viewBox="0 0 32 32">
<path  d="M11.2 7c-3.708 0-6.867 2.772-6.867 6.373 0 2.484 1.163 4.575 2.705 6.307 1.536 1.726 3.518 3.175 5.31 4.388l3.091 2.093c0.339 0.229 0.783 0.229 1.121 0l3.091-2.093c1.792-1.213 3.774-2.662 5.31-4.388 1.542-1.732 2.705-3.824 2.705-6.307 0-3.601-3.159-6.373-6.867-6.373-1.911 0-3.593 0.896-4.8 2.056-1.207-1.16-2.889-2.056-4.8-2.056z"></path>
</symbol>

<symbol id="icon-Solid" viewBox="0 0 32 32">
<path d="M23.333 3.333c-2.209 0-4 1.791-4 4 0 0.353 0.046 0.695 0.131 1.020-0.095 0.020-0.188 0.053-0.277 0.102l-3.675 2.005-4.675 2.672c-0.048 0.027-0.092 0.058-0.134 0.091-0.597-0.354-1.293-0.557-2.037-0.557-2.209 0-4 1.791-4 4s1.791 4 4 4c1.165 0 2.214-0.498 2.946-1.294l3.902 2.168 3.939 2.149c-0.079 0.313-0.12 0.64-0.12 0.977 0 2.209 1.791 4 4 4s4-1.791 4-4c0-2.209-1.791-4-4-4-1.153 0-2.191 0.487-2.921 1.267l-3.93-2.143-3.927-2.182c0.073-0.302 0.112-0.618 0.112-0.942 0-0.72-0.19-1.395-0.523-1.978l4.344-2.482 3.658-1.995c0.089-0.049 0.168-0.109 0.236-0.178 0.731 0.799 1.783 1.3 2.952 1.3 2.209 0 4-1.791 4-4s-1.791-4-4-4z"></path>
</symbol>
<symbol id="icon-Shopping-basket" viewBox="0 0 32 32">
<path  d="M12.866 5.833c0.276-0.478 0.112-1.090-0.366-1.366s-1.090-0.112-1.366 0.366l-2.213 3.833h-1.587c-1.473 0-2.667 1.194-2.667 2.667 0 0.955 0.502 1.792 1.256 2.263 0.077 0.048 0.166 0.070 0.257 0.070h19.641c0.091 0 0.18-0.022 0.257-0.070 0.754-0.471 1.256-1.309 1.256-2.263 0-1.473-1.194-2.667-2.667-2.667h-1.587l-2.213-3.833c-0.276-0.478-0.888-0.642-1.366-0.366s-0.642 0.888-0.366 1.366l1.636 2.833h-9.54l1.636-2.833z"></path>
<path  d="M25.78 15.98c0.029-0.163-0.097-0.313-0.263-0.313h-19.034c-0.166 0-0.291 0.15-0.263 0.313l1.334 7.598c0.278 1.581 1.543 2.802 3.132 3.023 3.525 0.49 7.101 0.49 10.627 0 1.589-0.221 2.855-1.442 3.132-3.023l1.334-7.598zM14.333 18.667c0-0.552-0.448-1-1-1s-1 0.448-1 1v2.667c0 0.552 0.448 1 1 1s1-0.448 1-1v-2.667zM18.667 17.667c0.552 0 1 0.448 1 1v2.667c0 0.552-0.448 1-1 1s-1-0.448-1-1v-2.667c0-0.552 0.448-1 1-1z"></path>
</symbol>
<symbol id="icon-Search" viewBox="0 0 32 32">
<path  d="M19.18 20.594l6.874 6.874c0.39 0.391 1.024 0.391 1.414 0s0.391-1.024 0-1.414l-6.874-6.874c2.83-3.534 2.607-8.706-0.668-11.982-3.515-3.515-9.213-3.515-12.728 0s-3.515 9.213 0 12.728c3.276 3.276 8.448 3.498 11.982 0.668zM8.612 18.512c-2.734-2.734-2.734-7.166 0-9.899s7.166-2.734 9.899 0c2.732 2.732 2.734 7.159 0.006 9.893-0.002 0.002-0.004 0.004-0.006 0.006s-0.004 0.004-0.006 0.006c-2.734 2.728-7.162 2.726-9.893-0.006z"></path>
</symbol>
<symbol id="icon-Burger" viewBox="0 0 32 32">
<path fill="#fcfcfc" style="fill: var(--color1, #fcfcfc)" d="M26.333 16c0-0.552-0.448-1-1-1h-18.667c-0.552 0-1 0.448-1 1s0.448 1 1 1h18.667c0.552 0 1-0.448 1-1z"></path>
<path fill="#fcfcfc" style="fill: var(--color1, #fcfcfc)" d="M26.333 9.333c0-0.552-0.448-1-1-1h-18.667c-0.552 0-1 0.448-1 1s0.448 1 1 1h18.667c0.552 0 1-0.448 1-1z"></path>
<path fill="#fcfcfc" style="fill: var(--color1, #fcfcfc)" d="M26.333 22.667c0-0.552-0.448-1-1-1h-18.667c-0.552 0-1 0.448-1 1s0.448 1 1 1h18.667c0.552 0 1-0.448 1-1z"></path>
</symbol>
<symbol id="icon-btn-close" viewBox="0 0 32 32">
<path  d="M30.313 2.88c1.135-1.135 1.135-2.996 0-4.131s-2.996-1.135-4.131 0l-11.636 11.665-11.665-11.665c-1.135-1.135-2.996-1.135-4.131 0s-1.135 2.996 0 4.131l11.665 11.665-11.665 11.636c-1.135 1.135-1.135 2.996 0 4.131s2.996 1.135 4.131 0l11.665-11.665 11.636 11.665c1.135 1.135 2.996 1.135 4.131 0s1.135-2.996 0-4.131l-11.665-11.636 11.665-11.665z"></path>
</symbol>
<symbol id="icon-logo" viewBox="0 0 52 32">
<path fill="#6b99c3" style="fill: var(--color1, #6b99c3)" d="M4.179 25.972l-4.179-9.642h3.231l3.066 7.328h0.122l3.068-7.328h3.228l-4.18 9.642h-4.355z"></path>
<path fill="#6b99c3" style="fill: var(--color1, #6b99c3)" d="M16.499 19.764c-0.178 0.101-0.37 0.175-0.57 0.217-0.253 0.062-0.513 0.092-0.773 0.089-0.259 0.003-0.517-0.027-0.769-0.089-0.197-0.043-0.386-0.117-0.561-0.217h-0.122v6.21h2.916v-6.21h-0.12zM16.478 16.431c-0.385-0.277-0.845-0.426-1.316-0.426s-0.932 0.149-1.316 0.426c-0.151 0.134-0.271 0.3-0.354 0.485s-0.126 0.387-0.126 0.59 0.043 0.405 0.126 0.59c0.083 0.185 0.203 0.351 0.354 0.485 0.384 0.279 0.844 0.428 1.316 0.428s0.932-0.15 1.316-0.428c0.151-0.134 0.273-0.299 0.356-0.485s0.126-0.387 0.126-0.591c0-0.204-0.043-0.405-0.126-0.591s-0.204-0.351-0.356-0.485z"></path>
<path fill="#6b99c3" style="fill: var(--color1, #6b99c3)" d="M21.461 26.179c-1.075 0-1.912-0.29-2.511-0.87-0.596-0.572-0.895-1.407-0.895-2.498v-6.591h2.918v1.903h2.357v0.992h-2.357v3.499c-0.010 0.163 0.013 0.326 0.070 0.479s0.143 0.292 0.256 0.408c0.252 0.219 0.577 0.33 0.908 0.311 0.377-0 0.752-0.056 1.114-0.165v2.301c-0.306 0.080-0.617 0.142-0.93 0.185-0.309 0.035-0.619 0.051-0.93 0.048z"></path>
<path fill="#6b99c3" style="fill: var(--color1, #6b99c3)" d="M27.204 26.179c-0.923 0-1.622-0.195-2.097-0.585-0.23-0.183-0.415-0.419-0.539-0.688s-0.184-0.564-0.175-0.861c-0.012-0.347 0.067-0.691 0.229-0.997s0.402-0.562 0.694-0.743c0.616-0.409 1.629-0.636 3.040-0.681 0.511-0.007 1.021-0.044 1.527-0.111 0.237-0.021 0.468-0.092 0.677-0.207 0.054-0.036 0.097-0.085 0.127-0.143s0.045-0.122 0.044-0.187c-0.001-0.069-0.016-0.138-0.044-0.2s-0.069-0.119-0.121-0.165c-0.171-0.135-0.374-0.223-0.589-0.254-0.387-0.074-0.78-0.106-1.174-0.096-0.729-0.001-1.455 0.086-2.164 0.261-0.578 0.131-1.141 0.324-1.677 0.578v-2.359c0.541-0.264 1.114-0.456 1.703-0.572 0.792-0.174 1.6-0.26 2.41-0.254 0.888-0.028 1.774 0.102 2.618 0.385 0.593 0.194 1.112 0.569 1.487 1.074 0.32 0.484 0.484 1.057 0.469 1.64v4.958h-2.918v-1.074h-0.109c-0.234 0.236-0.498 0.438-0.786 0.6-0.374 0.214-0.774 0.378-1.189 0.489-0.471 0.13-0.956 0.194-1.444 0.191zM28.56 24.209c0.578 0.004 1.149-0.127 1.669-0.385 0.182-0.086 0.351-0.197 0.503-0.331v-1.253c-0.1 0.063-0.207 0.113-0.319 0.15-0.19 0.066-0.386 0.115-0.585 0.146-0.271 0.045-0.546 0.070-0.821 0.076-0.416-0.008-0.828 0.083-1.202 0.267-0.106 0.056-0.195 0.141-0.258 0.244s-0.097 0.222-0.1 0.343c-0.002 0.106 0.022 0.211 0.069 0.306s0.116 0.176 0.201 0.238c0.254 0.151 0.548 0.22 0.842 0.198z"></path>
<path fill="#6b99c3" style="fill: var(--color1, #6b99c3)" d="M37.903 16.056h-2.918v9.918h2.918v-9.918z"></path>
<path fill="#6b99c3" style="fill: var(--color1, #6b99c3)" d="M44.895 20.601h-5.602v2.107h5.602v-2.107z"></path>
<path fill="#6b99c3" style="fill: var(--color1, #6b99c3)" d="M44.864 31.926c-1.016-0.009-2.025-0.162-2.999-0.454v-2.466c0.442 0.148 0.894 0.266 1.352 0.352 0.361 0.059 0.727 0.089 1.093 0.089 0.733 0 1.285-0.174 1.669-0.524s0.57-0.881 0.57-1.598v-10.994h2.918v11.090c0 1.479-0.401 2.599-1.202 3.362s-1.934 1.144-3.4 1.144z"></path>
<path fill="#6b99c3" style="fill: var(--color1, #6b99c3)" d="M45.87 6.765c-0.732-0.042-1.464 0.082-2.142 0.363-1.285 0.589-1.392 1.685-1.392 1.685-1.022 6.404-8.751 4.749-8.751 4.749 4.449-1.17 6.163-5.219 6.264-5.48-4.565 5.815-11.354 5.708-13.88 5.436l-1.185-1.681 2.879-0.015c0.926-0.005 1.821-0.339 2.53-0.944l7.198-6.145c-0.315-0.468-0.902-0.987-1.622-1.535 6.748-0.926 6.855 2.553 6.855 2.553 1.12 0.201 2.211 0.545 3.245 1.024z"></path>
<path fill="#6b99c3" style="fill: var(--color1, #6b99c3)" d="M35.661 17.507l-2.080-3.944 1.185-0.004 1.474 3.662-0.578 0.287z"></path>
<path fill="#6b99c3" style="fill: var(--color1, #6b99c3)" d="M45.548 4.599c0.133-0.147 0.276-0.284 0.428-0.411 0.137-0.109 0.28-0.209 0.428-0.3 0.611-0.356 1.079-0.919 1.322-1.59 0.104-0.24 0.132-0.506 0.080-0.763s-0.18-0.491-0.367-0.671c-0.188-0.18-0.426-0.296-0.681-0.333s-0.516 0.007-0.746 0.126c-0.167 0.087-0.308 0.217-0.41 0.377s-0.161 0.344-0.17 0.534c0.083-0.055 0.182-0.080 0.281-0.070 0.082 0.010 0.159 0.043 0.223 0.096s0.111 0.124 0.136 0.204c0.025 0.080 0.027 0.165 0.005 0.246s-0.066 0.154-0.127 0.209-0.137 0.093-0.219 0.106c-0.081 0.013-0.165 0.002-0.24-0.032s-0.14-0.089-0.185-0.159c-0.045-0.070-0.070-0.152-0.070-0.236-0.051-0.563 0.148-1.205 0.685-1.457 0.81-0.422 1.958 0.080 2.102 1.020 0.109 0.715-0.238 1.379-0.662 1.935 0.313-0.113 0.636-0.195 0.964-0.246 1.227-0.217 2.012-1.353 1.559-2.494-0.043 0.063-0.102 0.114-0.17 0.147s-0.144 0.047-0.22 0.040c-0.076-0.007-0.148-0.033-0.21-0.078s-0.111-0.104-0.143-0.174c-0.032-0.070-0.044-0.147-0.037-0.224s0.035-0.15 0.079-0.212 0.104-0.112 0.173-0.143c0.069-0.031 0.145-0.043 0.221-0.035 0.061 0.007 0.12 0.028 0.172 0.061s0.097 0.076 0.132 0.128c0.731 1.107 0.311 2.329-0.662 2.931 0.41 0.008 0.818 0.071 1.212 0.187 2.161 0.918 0.643 3.497-1.341 2.477-0.084-0.039-0.154-0.104-0.198-0.186s-0.062-0.177-0.049-0.269c0.013-0.093 0.054-0.179 0.119-0.246s0.149-0.11 0.24-0.125c0.091-0.014 0.185 0.002 0.266 0.046s0.147 0.114 0.186 0.198c0.039 0.085 0.051 0.18 0.032 0.272s-0.065 0.175-0.134 0.238c0.209 0.069 0.432 0.087 0.649 0.053s0.424-0.119 0.604-0.249c0.221-0.17 0.368-0.421 0.408-0.699s-0.029-0.562-0.194-0.788c-0.358-0.465-0.981-0.618-1.547-0.639-1.185-0.046-2.419 0.252-3.35 1.020-0.109 0.091-0.214 0.187-0.313 0.287 0.142-0.026 0.287-0.021 0.426 0.016s0.269 0.104 0.38 0.196 0.201 0.209 0.263 0.341c0.062 0.132 0.096 0.275 0.098 0.421 0.001 0.021 0.001 0.042 0 0.063v0.037c-0.010 0.085-0.044 0.166-0.099 0.231s-0.127 0.113-0.209 0.137c-0.081 0.024-0.168 0.022-0.248-0.004s-0.152-0.076-0.205-0.143-0.085-0.149-0.092-0.234c-0.007-0.086 0.011-0.171 0.051-0.247s0.103-0.137 0.178-0.176c0.075-0.040 0.16-0.056 0.244-0.047 0.020 0.003 0.040 0.007 0.060 0.013-0.071-0.102-0.163-0.187-0.27-0.249s-0.226-0.099-0.349-0.109c-0.123-0.010-0.246 0.008-0.361 0.052s-0.22 0.113-0.305 0.203c-0.87 1.142-1.262 2.651-1.324 4.077h-0.306c0.025-0.634 0.12-1.264 0.283-1.877 0.212-0.807 0.568-1.567 1.052-2.242 0.147-0.196 0.303-0.385 0.469-0.565z"></path>
<path fill="#e4e5ea" style="fill: var(--color2, #e4e5ea)" d="M43.725 7.126c-1.285 0.589-1.392 1.685-1.392 1.685-1.022 6.404-8.751 4.749-8.751 4.749 4.449-1.17 6.163-5.219 6.264-5.48 0 0 0.868-0.652 3.88-0.955z"></path>
<path fill="#e4e5ea" style="fill: var(--color2, #e4e5ea)" d="M36.634 11.081c0 0-3.485 3.344-12.793 2.809l-0.829-1.222c0 0 8.383 1.379 13.631-1.587z"></path>
<path fill="#6b99c3" style="fill: var(--color1, #6b99c3)" d="M4.192 31.915v-3.434h1.81v0.524h-1.168v0.8h1.071v0.524h-1.071v1.065h1.168v0.52h-1.81z"></path>
<path fill="#6b99c3" style="fill: var(--color1, #6b99c3)" d="M7.346 31.915v-3.434h1.026l0.452 2.24 0.45-2.24h1.024v3.434h-0.595v-3.107h-0.017l-0.643 3.116h-0.454l-0.643-3.107v3.099h-0.6z"></path>
<path fill="#6b99c3" style="fill: var(--color1, #6b99c3)" d="M11.701 31.915v-3.434h1.215c0.167-0.003 0.331 0.045 0.471 0.137 0.136 0.088 0.244 0.213 0.313 0.361 0.072 0.159 0.108 0.332 0.105 0.507 0.002 0.178-0.035 0.355-0.107 0.518-0.069 0.153-0.179 0.283-0.317 0.376-0.141 0.094-0.307 0.143-0.476 0.139h-0.563v1.396h-0.641zM12.344 30.006h0.323c0.066 0.005 0.133-0.004 0.195-0.027s0.119-0.059 0.167-0.106c0.088-0.106 0.131-0.242 0.122-0.381 0.009-0.137-0.035-0.272-0.122-0.376-0.048-0.046-0.105-0.082-0.168-0.104s-0.129-0.032-0.195-0.027h-0.323v1.020z"></path>
<path fill="#6b99c3" style="fill: var(--color1, #6b99c3)" d="M15.167 30.843v-1.246c-0.004-0.186 0.023-0.371 0.079-0.548 0.045-0.139 0.124-0.265 0.229-0.365 0.1-0.091 0.219-0.16 0.347-0.2 0.292-0.084 0.601-0.084 0.893 0 0.126 0.039 0.243 0.106 0.341 0.196 0.105 0.1 0.183 0.226 0.225 0.365 0.053 0.179 0.078 0.365 0.075 0.552v1.246c0.003 0.186-0.022 0.372-0.075 0.55-0.042 0.138-0.121 0.262-0.227 0.359-0.099 0.087-0.215 0.152-0.341 0.189-0.145 0.041-0.295 0.061-0.446 0.059-0.734 0-1.101-0.386-1.101-1.157zM15.822 30.924c0 0.37 0.148 0.555 0.446 0.555 0.061 0.003 0.121-0.008 0.177-0.033s0.104-0.063 0.143-0.111c0.083-0.12 0.123-0.265 0.113-0.411v-1.4c0.010-0.154-0.030-0.306-0.113-0.435-0.036-0.051-0.085-0.091-0.14-0.118s-0.117-0.039-0.179-0.036c-0.298 0-0.446 0.191-0.446 0.576v1.413z"></path>
<path fill="#6b99c3" style="fill: var(--color1, #6b99c3)" d="M18.596 28.482h0.643l0.39 2.87 0.428-2.87h0.681l0.428 2.87 0.386-2.87h0.643l-0.546 3.434h-0.9l-0.336-2.392-0.349 2.392h-0.908l-0.559-3.434z"></path>
<path fill="#6b99c3" style="fill: var(--color1, #6b99c3)" d="M23.423 31.915v-3.434h1.812v0.524h-1.168v0.8h1.071v0.524h-1.071v1.065h1.168v0.52h-1.812z"></path>
<path fill="#6b99c3" style="fill: var(--color1, #6b99c3)" d="M26.572 31.915v-3.434h1.317c0.113-0.005 0.227 0.016 0.332 0.059s0.199 0.11 0.277 0.195c0.154 0.174 0.236 0.401 0.229 0.635 0.011 0.201-0.033 0.4-0.129 0.576-0.037 0.064-0.087 0.119-0.148 0.161s-0.129 0.069-0.202 0.080c0.082 0.015 0.16 0.046 0.229 0.091 0.059 0.038 0.109 0.090 0.144 0.152 0.032 0.056 0.056 0.116 0.071 0.178s0.021 0.127 0.021 0.191v0.722c0.001 0.041 0.005 0.082 0.013 0.122 0.007 0.030 0.015 0.059 0.026 0.087 0.008 0.025 0.023 0.047 0.043 0.063 0.019 0.013 0.041 0.020 0.064 0.020v0.1h-0.643c-0.062-0.078-0.108-0.169-0.135-0.265s-0.033-0.198-0.020-0.298v-0.396c0.005-0.126-0.025-0.25-0.088-0.359-0.033-0.047-0.078-0.085-0.129-0.11s-0.109-0.035-0.166-0.029h-0.469v1.457h-0.638zM27.215 29.958h0.428c0.119 0.004 0.236-0.038 0.326-0.117 0.047-0.052 0.083-0.113 0.105-0.18s0.030-0.137 0.023-0.208c0.008-0.067 0.001-0.135-0.019-0.199s-0.054-0.123-0.098-0.173c-0.101-0.076-0.226-0.113-0.351-0.104h-0.416l0.002 0.981z"></path>
<path fill="#6b99c3" style="fill: var(--color1, #6b99c3)" d="M30.139 31.915v-3.434h0.643v3.434h-0.643z"></path>
<path fill="#6b99c3" style="fill: var(--color1, #6b99c3)" d="M32.195 31.915v-3.434h0.694l0.938 2.501c-0.062-0.424-0.089-0.852-0.079-1.281v-1.22h0.589v3.434h-0.694l-0.938-2.494c0.064 0.422 0.091 0.849 0.079 1.276v1.218h-0.589z"></path>
<path fill="#6b99c3" style="fill: var(--color1, #6b99c3)" d="M35.726 30.76v-1.122c-0.024-0.328 0.076-0.654 0.281-0.909 0.11-0.108 0.241-0.192 0.385-0.245s0.297-0.075 0.45-0.063c0.141-0.003 0.281 0.018 0.416 0.061 0.106 0.030 0.205 0.080 0.292 0.149s0.159 0.154 0.213 0.251c0.053 0.091 0.091 0.19 0.114 0.294 0.024 0.107 0.035 0.216 0.034 0.326v0.096h-0.643c0.013-0.173-0.022-0.347-0.103-0.5-0.036-0.052-0.085-0.093-0.142-0.119s-0.119-0.038-0.181-0.033c-0.067-0.007-0.134 0.004-0.195 0.031s-0.115 0.069-0.156 0.123c-0.085 0.151-0.123 0.325-0.109 0.498v1.087c-0.012 0.206 0.024 0.411 0.105 0.6 0.036 0.056 0.085 0.103 0.142 0.136s0.122 0.052 0.188 0.055 0.132-0.010 0.192-0.038c0.060-0.028 0.113-0.070 0.153-0.123 0.082-0.154 0.119-0.329 0.107-0.504v-0.228h-0.428v-0.509h1.071v1.842h-0.503v-0.387c-0.059 0.14-0.154 0.263-0.274 0.354-0.134 0.083-0.291 0.123-0.448 0.113-0.127 0.002-0.252-0.024-0.368-0.074-0.115-0.050-0.219-0.124-0.304-0.217-0.1-0.112-0.173-0.245-0.214-0.389-0.051-0.18-0.076-0.367-0.073-0.554z"></path>
</symbol>
<symbol id="icon-facebook" viewBox="0 0 32 32">
<path  d="M18.933 3.833c-1.635 0-3.204 0.65-4.361 1.806s-1.806 2.725-1.806 4.36v3.433h-3.3c-0.166 0-0.3 0.134-0.3 0.3v4.533c0 0.166 0.134 0.3 0.3 0.3h3.3v9.3c0 0.166 0.134 0.3 0.3 0.3h4.533c0.166 0 0.3-0.134 0.3-0.3v-9.3h3.329c0.138 0 0.258-0.094 0.291-0.227l1.133-4.533c0.047-0.189-0.096-0.373-0.291-0.373h-4.463v-3.433c0-0.274 0.109-0.537 0.303-0.731s0.457-0.303 0.731-0.303h3.467c0.166 0 0.3-0.134 0.3-0.3v-4.533c0-0.166-0.134-0.3-0.3-0.3h-3.467z"></path>
</symbol>
<symbol id="icon-tweeter" viewBox="0 0 32 32">
<path  d="M29.080 8.303c0.077-0.108-0.037-0.247-0.161-0.199-0.878 0.34-1.796 0.57-2.733 0.683 1.043-0.623 1.847-1.571 2.293-2.693 0.045-0.114-0.079-0.216-0.187-0.157-0.969 0.535-2.014 0.92-3.099 1.142-0.045 0.009-0.092-0.006-0.124-0.040-0.815-0.86-1.887-1.432-3.056-1.63-1.193-0.202-2.42-0.002-3.488 0.568s-1.916 1.479-2.411 2.584c-0.471 1.050-0.598 2.221-0.366 3.345 0.018 0.087-0.050 0.17-0.139 0.164-2.112-0.131-4.176-0.693-6.064-1.651-1.883-0.956-3.551-2.286-4.901-3.908-0.060-0.072-0.174-0.063-0.217 0.020-0.42 0.797-0.64 1.686-0.64 2.59-0.002 0.899 0.219 1.785 0.642 2.578s1.036 1.47 1.784 1.969c-0.793-0.022-1.571-0.218-2.278-0.573-0.091-0.046-0.2 0.019-0.196 0.121 0.055 1.186 0.49 2.376 1.244 3.289 0.802 0.972 1.915 1.637 3.15 1.883-0.476 0.145-0.97 0.221-1.467 0.227-0.271-0.003-0.541-0.023-0.809-0.060-0.099-0.014-0.18 0.081-0.146 0.175 0.369 0.997 1.020 1.866 1.876 2.501 0.915 0.679 2.019 1.055 3.159 1.077-1.924 1.514-4.299 2.34-6.747 2.347-0.252 0.001-0.503-0.007-0.754-0.024-0.141-0.010-0.206 0.179-0.085 0.251 2.385 1.415 5.111 2.163 7.892 2.16 2.053 0.021 4.090-0.367 5.991-1.141s3.629-1.92 5.083-3.37c1.454-1.45 2.604-3.175 3.383-5.074s1.173-3.935 1.157-5.988v-0.64c0-0.042 0.020-0.082 0.054-0.107 0.904-0.683 1.7-1.498 2.359-2.418z"></path>
</symbol>
<symbol id="icon-instagram" viewBox="0 0 32 32">
<path  d="M22.97 4.1c-4.6-0.51-9.35-0.51-13.95 0-2.53 0.29-4.57 2.28-4.87 4.82-0.55 4.7-0.55 9.45 0 14.15 0.3 2.54 2.34 4.53 4.87 4.82 4.6 0.51 9.35 0.51 13.95 0 2.53-0.29 4.57-2.28 4.87-4.82 0.55-4.7 0.55-9.45 0-14.15-0.3-2.54-2.34-4.53-4.87-4.82zM21.33 9.33c0-0.74 0.59-1.34 1.33-1.34s1.33 0.6 1.33 1.34c0 0.73-0.59 1.33-1.33 1.33s-1.33-0.6-1.33-1.33zM15.99 9.66c-3.49 0-6.33 2.84-6.33 6.33 0 3.5 2.84 6.34 6.33 6.34 3.5 0 6.34-2.84 6.34-6.34 0-3.49-2.84-6.33-6.34-6.33zM11.66 15.99c0-2.39 1.94-4.33 4.33-4.33 2.4 0 4.34 1.94 4.34 4.33 0 2.4-1.94 4.34-4.34 4.34-2.39 0-4.33-1.94-4.33-4.34z"></path>
</symbol>
<symbol id="icon-footer-logo" viewBox="0 0 52 32">
<path fill="#6b99c3" style="fill: var(--color1, #6b99c3)" d="M4.242 25.972l-4.242-9.642h3.279l3.112 7.328h0.124l3.114-7.328h3.277l-4.242 9.642h-4.421z"></path>
<path fill="#6b99c3" style="fill: var(--color1, #6b99c3)" d="M16.748 19.764c-0.181 0.101-0.376 0.175-0.578 0.218-0.257 0.062-0.52 0.092-0.785 0.089-0.263 0.003-0.525-0.027-0.78-0.089-0.2-0.043-0.392-0.117-0.57-0.218h-0.124v6.21h2.96v-6.21h-0.122zM16.726 16.43c-0.39-0.277-0.857-0.426-1.336-0.426s-0.946 0.149-1.336 0.426c-0.153 0.134-0.275 0.3-0.359 0.485s-0.127 0.387-0.127 0.59c0 0.204 0.043 0.405 0.127 0.59s0.207 0.351 0.359 0.485c0.39 0.279 0.857 0.428 1.336 0.428s0.946-0.15 1.336-0.428c0.154-0.134 0.277-0.299 0.361-0.485s0.128-0.387 0.128-0.591-0.044-0.405-0.128-0.591c-0.084-0.185-0.207-0.351-0.361-0.485z"></path>
<path fill="#6b99c3" style="fill: var(--color1, #6b99c3)" d="M21.784 26.179c-1.092 0-1.941-0.29-2.548-0.87-0.605-0.572-0.909-1.407-0.909-2.498v-6.591h2.962v1.903h2.392v0.992h-2.392v3.499c-0.010 0.163 0.014 0.326 0.071 0.479s0.146 0.292 0.26 0.408c0.256 0.219 0.586 0.33 0.922 0.311 0.383-0 0.764-0.056 1.131-0.165v2.301c-0.311 0.080-0.626 0.142-0.944 0.185-0.313 0.035-0.628 0.051-0.944 0.048z"></path>
<path fill="#6b99c3" style="fill: var(--color1, #6b99c3)" d="M27.614 26.179c-0.936 0-1.646-0.195-2.129-0.585-0.234-0.183-0.421-0.419-0.547-0.688s-0.187-0.564-0.177-0.861c-0.012-0.347 0.068-0.691 0.233-0.997s0.408-0.562 0.704-0.743c0.625-0.409 1.653-0.636 3.086-0.681 0.518-0.007 1.036-0.044 1.55-0.111 0.241-0.021 0.474-0.092 0.687-0.207 0.054-0.036 0.099-0.085 0.129-0.143s0.046-0.122 0.045-0.187c-0.001-0.069-0.016-0.137-0.045-0.2s-0.071-0.119-0.122-0.165c-0.174-0.135-0.38-0.223-0.598-0.254-0.393-0.073-0.792-0.105-1.192-0.096-0.74-0.002-1.477 0.086-2.196 0.261-0.587 0.131-1.158 0.325-1.703 0.579v-2.359c0.55-0.264 1.131-0.456 1.729-0.572 0.804-0.174 1.624-0.26 2.446-0.254 0.901-0.028 1.801 0.102 2.657 0.385 0.602 0.194 1.129 0.569 1.509 1.074 0.325 0.484 0.492 1.057 0.476 1.64v4.958h-2.962v-1.074h-0.111c-0.237 0.236-0.506 0.438-0.798 0.6-0.38 0.214-0.785 0.378-1.207 0.489-0.477 0.13-0.971 0.194-1.466 0.191zM28.99 24.209c0.587 0.004 1.167-0.127 1.694-0.385 0.185-0.086 0.357-0.197 0.511-0.331v-1.252c-0.101 0.063-0.21 0.113-0.324 0.15-0.193 0.066-0.392 0.115-0.594 0.146-0.275 0.045-0.554 0.070-0.833 0.076-0.422-0.008-0.84 0.083-1.22 0.267-0.108 0.056-0.198 0.141-0.262 0.244s-0.099 0.222-0.101 0.343c-0.002 0.106 0.022 0.211 0.070 0.306s0.118 0.176 0.204 0.238c0.258 0.151 0.556 0.22 0.855 0.198z"></path>
<path fill="#6b99c3" style="fill: var(--color1, #6b99c3)" d="M35.512 16.056h2.962v9.918h-2.962v-9.918z"></path>
<path fill="#6b99c3" style="fill: var(--color1, #6b99c3)" d="M39.885 20.601h5.686v2.107h-5.686v-2.107z"></path>
<path fill="#6b99c3" style="fill: var(--color1, #6b99c3)" d="M45.54 31.926c-1.031-0.009-2.056-0.162-3.044-0.454v-2.466c0.449 0.148 0.907 0.266 1.372 0.352 0.367 0.060 0.737 0.089 1.109 0.089 0.744 0 1.305-0.174 1.694-0.524s0.578-0.881 0.578-1.598v-10.994h2.962v11.090c0 1.479-0.407 2.599-1.22 3.362s-1.964 1.144-3.451 1.144z"></path>
<path fill="#6b99c3" style="fill: var(--color1, #6b99c3)" d="M46.561 6.765c-0.743-0.042-1.486 0.082-2.175 0.363-1.305 0.589-1.413 1.685-1.413 1.685-1.037 6.404-8.883 4.749-8.883 4.749 4.517-1.17 6.256-5.219 6.358-5.48-4.634 5.815-11.525 5.708-14.089 5.436l-1.202-1.681 2.922-0.015c0.94-0.005 1.849-0.339 2.568-0.944l7.306-6.145c-0.32-0.468-0.916-0.987-1.646-1.535 6.85-0.926 6.958 2.553 6.958 2.553 1.137 0.201 2.244 0.545 3.294 1.024v-0.011z"></path>
<path fill="#6b99c3" style="fill: var(--color1, #6b99c3)" d="M36.199 17.507l-2.111-3.945 1.202-0.004 1.496 3.662-0.587 0.287z"></path>
<path fill="#6b99c3" style="fill: var(--color1, #6b99c3)" d="M46.234 4.599c0.135-0.147 0.28-0.285 0.435-0.411 0.139-0.109 0.284-0.209 0.435-0.3 0.62-0.356 1.095-0.919 1.342-1.59 0.105-0.24 0.133-0.506 0.081-0.763s-0.182-0.491-0.373-0.671c-0.19-0.18-0.432-0.296-0.691-0.333s-0.524 0.007-0.757 0.126c-0.17 0.087-0.313 0.217-0.416 0.377s-0.163 0.344-0.173 0.534c0.084-0.056 0.185-0.080 0.285-0.070 0.083 0.010 0.162 0.043 0.227 0.096s0.112 0.124 0.138 0.204c0.026 0.080 0.028 0.165 0.005 0.246s-0.067 0.154-0.129 0.209c-0.062 0.056-0.139 0.093-0.222 0.106s-0.168 0.002-0.244-0.032-0.142-0.089-0.188-0.159c-0.046-0.070-0.071-0.152-0.071-0.236-0.052-0.563 0.15-1.205 0.696-1.457 0.822-0.422 1.987 0.080 2.133 1.020 0.111 0.715-0.242 1.379-0.672 1.935 0.317-0.113 0.645-0.196 0.978-0.246 1.246-0.217 2.042-1.353 1.583-2.494-0.043 0.063-0.103 0.114-0.172 0.147s-0.146 0.047-0.223 0.040c-0.077-0.007-0.15-0.033-0.213-0.078s-0.113-0.104-0.145-0.174c-0.032-0.070-0.045-0.147-0.038-0.224s0.035-0.15 0.080-0.212 0.106-0.112 0.176-0.143c0.070-0.031 0.148-0.043 0.224-0.035 0.062 0.007 0.122 0.028 0.175 0.061s0.099 0.076 0.134 0.128c0.741 1.107 0.315 2.329-0.672 2.931 0.416 0.009 0.83 0.071 1.231 0.187 2.194 0.918 0.653 3.497-1.361 2.477-0.085-0.039-0.156-0.104-0.201-0.186s-0.063-0.177-0.050-0.269 0.056-0.179 0.121-0.246c0.066-0.067 0.151-0.111 0.244-0.125s0.188 0.002 0.27 0.046c0.083 0.044 0.149 0.114 0.189 0.198s0.051 0.18 0.033 0.272c-0.019 0.092-0.066 0.175-0.136 0.238 0.212 0.069 0.438 0.087 0.659 0.053s0.431-0.119 0.613-0.249c0.224-0.17 0.373-0.421 0.414-0.699s-0.030-0.562-0.196-0.788c-0.363-0.465-0.996-0.618-1.57-0.639-1.203-0.046-2.455 0.252-3.401 1.020-0.111 0.091-0.217 0.187-0.317 0.287 0.144-0.026 0.291-0.021 0.433 0.016s0.273 0.104 0.386 0.196c0.113 0.093 0.204 0.209 0.267 0.34s0.097 0.275 0.1 0.421c0.001 0.021 0.001 0.042 0 0.063v0.037c-0.010 0.085-0.045 0.166-0.1 0.231s-0.129 0.113-0.212 0.137c-0.083 0.024-0.17 0.022-0.252-0.004s-0.154-0.076-0.207-0.143c-0.054-0.067-0.086-0.149-0.093-0.234s0.011-0.171 0.052-0.247c0.042-0.075 0.104-0.136 0.18-0.176s0.162-0.056 0.248-0.046c0.020 0.003 0.041 0.007 0.061 0.013-0.072-0.102-0.165-0.187-0.273-0.249s-0.23-0.099-0.354-0.109c-0.125-0.010-0.25 0.008-0.367 0.052s-0.223 0.113-0.31 0.203c-0.883 1.142-1.281 2.651-1.344 4.077h-0.311c0.025-0.634 0.121-1.264 0.287-1.877 0.215-0.807 0.577-1.567 1.068-2.242 0.149-0.196 0.308-0.385 0.476-0.565v-0.004z"></path>
<path fill="#e4e5ea" style="fill: var(--color2, #e4e5ea)" d="M44.384 7.126c-1.305 0.589-1.413 1.685-1.413 1.685-1.037 6.404-8.883 4.749-8.883 4.749 4.516-1.17 6.256-5.219 6.358-5.48 0 0 0.881-0.652 3.938-0.955z"></path>
<path fill="#e4e5ea" style="fill: var(--color2, #e4e5ea)" d="M37.186 11.081c0 0-3.538 3.344-12.986 2.809l-0.842-1.222c0 0 8.509 1.379 13.836-1.587h-0.009z"></path>
<path fill="#6b99c3" style="fill: var(--color1, #6b99c3)" d="M4.256 31.915v-3.433h1.837v0.524h-1.185v0.8h1.087v0.524h-1.087v1.065h1.185v0.52h-1.837z"></path>
<path fill="#6b99c3" style="fill: var(--color1, #6b99c3)" d="M7.456 31.915v-3.433h1.042l0.459 2.24 0.457-2.24h1.040v3.433h-0.605v-3.107h-0.017l-0.652 3.116h-0.461l-0.652-3.107v3.099h-0.609z"></path>
<path fill="#6b99c3" style="fill: var(--color1, #6b99c3)" d="M11.877 31.915v-3.434h1.233c0.17-0.003 0.336 0.045 0.478 0.137 0.138 0.088 0.248 0.213 0.318 0.361 0.073 0.159 0.109 0.332 0.107 0.507 0.002 0.178-0.035 0.355-0.109 0.517-0.070 0.153-0.182 0.283-0.322 0.376-0.143 0.094-0.311 0.143-0.483 0.139h-0.572v1.396h-0.65zM12.53 30.006h0.328c0.067 0.005 0.135-0.004 0.198-0.027s0.121-0.059 0.17-0.106c0.089-0.106 0.133-0.242 0.124-0.381 0.009-0.137-0.035-0.272-0.124-0.376-0.049-0.046-0.107-0.082-0.17-0.104s-0.131-0.032-0.198-0.027h-0.328v1.020z"></path>
<path fill="#6b99c3" style="fill: var(--color1, #6b99c3)" d="M15.396 30.843v-1.246c-0.004-0.186 0.023-0.371 0.080-0.548 0.045-0.139 0.126-0.265 0.233-0.365 0.102-0.091 0.222-0.16 0.352-0.2 0.296-0.084 0.61-0.084 0.907 0 0.128 0.039 0.246 0.106 0.346 0.196 0.107 0.1 0.185 0.226 0.228 0.365 0.054 0.179 0.080 0.365 0.076 0.552v1.246c0.003 0.186-0.022 0.372-0.076 0.55-0.043 0.138-0.122 0.262-0.23 0.359-0.1 0.087-0.218 0.152-0.346 0.189-0.147 0.041-0.299 0.061-0.452 0.059-0.745 0-1.118-0.386-1.118-1.157zM16.061 30.924c0 0.37 0.15 0.554 0.452 0.554 0.062 0.003 0.123-0.008 0.179-0.033s0.106-0.063 0.145-0.11c0.084-0.12 0.125-0.265 0.115-0.411v-1.4c0.010-0.154-0.031-0.306-0.115-0.435-0.037-0.051-0.086-0.091-0.142-0.118s-0.119-0.039-0.182-0.036c-0.302 0-0.452 0.191-0.452 0.576v1.413z"></path>
<path fill="#6b99c3" style="fill: var(--color1, #6b99c3)" d="M18.877 28.482h0.652l0.396 2.87 0.435-2.87h0.691l0.435 2.87 0.391-2.87h0.652l-0.555 3.433h-0.913l-0.341-2.392-0.355 2.392h-0.922l-0.567-3.433z"></path>
<path fill="#6b99c3" style="fill: var(--color1, #6b99c3)" d="M23.776 31.915v-3.433h1.84v0.524h-1.185v0.8h1.087v0.524h-1.087v1.065h1.185v0.52h-1.84z"></path>
<path fill="#6b99c3" style="fill: var(--color1, #6b99c3)" d="M26.973 31.915v-3.433h1.337c0.115-0.005 0.23 0.016 0.337 0.059s0.202 0.11 0.281 0.195c0.156 0.174 0.239 0.401 0.233 0.635 0.011 0.201-0.034 0.4-0.131 0.576-0.037 0.064-0.088 0.119-0.15 0.161s-0.131 0.069-0.205 0.080c0.083 0.015 0.162 0.046 0.233 0.091 0.060 0.038 0.11 0.090 0.146 0.152 0.032 0.056 0.057 0.116 0.072 0.178s0.021 0.127 0.022 0.191v0.722c0.001 0.041 0.005 0.082 0.013 0.122 0.006 0.030 0.015 0.059 0.026 0.087 0.008 0.025 0.023 0.047 0.043 0.063 0.019 0.013 0.042 0.020 0.065 0.020v0.1h-0.652c-0.063-0.078-0.11-0.168-0.137-0.265s-0.034-0.198-0.020-0.298v-0.396c0.005-0.126-0.026-0.25-0.089-0.359-0.033-0.047-0.079-0.085-0.131-0.11s-0.111-0.035-0.169-0.029h-0.476v1.457h-0.648zM27.625 29.958h0.435c0.121 0.004 0.239-0.038 0.331-0.117 0.048-0.052 0.084-0.113 0.107-0.18s0.031-0.137 0.024-0.207c0.008-0.067 0.001-0.135-0.020-0.199s-0.055-0.123-0.1-0.173c-0.103-0.076-0.229-0.114-0.357-0.105h-0.422l0.002 0.981z"></path>
<path fill="#6b99c3" style="fill: var(--color1, #6b99c3)" d="M30.593 31.915v-3.433h0.652v3.433h-0.652z"></path>
<path fill="#6b99c3" style="fill: var(--color1, #6b99c3)" d="M32.681 31.915v-3.433h0.705l0.953 2.501c-0.063-0.424-0.090-0.852-0.081-1.281v-1.22h0.598v3.433h-0.704l-0.952-2.494c0.065 0.422 0.092 0.849 0.080 1.276v1.218h-0.598z"></path>
<path fill="#6b99c3" style="fill: var(--color1, #6b99c3)" d="M36.264 30.761v-1.122c-0.025-0.328 0.077-0.654 0.285-0.909 0.111-0.109 0.245-0.192 0.391-0.245s0.302-0.075 0.457-0.063c0.143-0.002 0.285 0.018 0.422 0.061 0.108 0.030 0.209 0.080 0.297 0.149s0.162 0.154 0.217 0.251c0.054 0.091 0.093 0.19 0.115 0.294 0.024 0.107 0.036 0.216 0.035 0.326v0.096h-0.652c0.013-0.173-0.023-0.347-0.104-0.5-0.037-0.052-0.087-0.093-0.144-0.119s-0.121-0.038-0.184-0.033c-0.068-0.007-0.136 0.004-0.198 0.031s-0.117 0.070-0.158 0.123c-0.086 0.151-0.125 0.325-0.111 0.498v1.087c-0.012 0.206 0.024 0.411 0.107 0.6 0.037 0.056 0.086 0.103 0.144 0.136s0.124 0.052 0.19 0.055c0.067 0.003 0.134-0.010 0.195-0.038s0.114-0.070 0.156-0.123c0.083-0.155 0.121-0.329 0.109-0.505v-0.228h-0.435v-0.509h1.087v1.842h-0.511v-0.387c-0.060 0.141-0.156 0.263-0.278 0.354-0.136 0.083-0.295 0.123-0.454 0.113-0.128 0.002-0.256-0.024-0.374-0.074-0.117-0.050-0.222-0.124-0.309-0.217-0.101-0.112-0.175-0.245-0.217-0.389-0.052-0.18-0.077-0.367-0.074-0.555z"></path>
</symbol>
<symbol id="google-icon" viewBox="0 0 32 32">
<path d="M16 0c-8.842 0-16 7.158-16 16 0 8.835 7.158 16 16 16 8.835 0 16-7.165 16-16 0-8.842-7.165-16-16-16zM16.181 25.357c-5.155 0-9.329-4.188-9.329-9.357 0-5.176 4.174-9.363 9.329-9.363 2.525 0 4.626 0.932 6.247 2.442l-2.637 2.637v-0.007c-0.981-0.932-2.219-1.412-3.61-1.412-3.075 0-5.579 2.609-5.579 5.697 0 3.082 2.504 5.697 5.579 5.697 2.797 0 4.696-1.6 5.092-3.798h-5.092v-3.652h8.779c0.118 0.626 0.181 1.28 0.181 1.969 0 5.343-3.569 9.148-8.96 9.148z"></path>
</symbol>
<symbol id="facebook-icon" viewBox="0 0 32 32">
<path d="M16 0.633c-8.487 0-15.36 6.88-15.36 15.367 0 8.48 6.873 15.36 15.36 15.36 8.48 0 15.36-6.88 15.36-15.36 0-8.487-6.88-15.367-15.36-15.367zM19.638 11.249h-2.31c-0.278 0-0.577 0.362-0.577 0.842v1.663h2.887l-0.438 2.379h-2.449v7.137h-2.727v-7.137h-2.47v-2.379h2.47v-1.398c0-2.003 1.391-3.631 3.304-3.631h2.31v2.525z"></path>
</symbol>
<symbol id="apple-icon" viewBox="0 0 32 32">
<path  d="M32 16c0 8.837-7.163 16-16 16s-16-7.163-16-16c0-8.837 7.163-16 16-16s16 7.163 16 16z"></path>
<path fill="#fcfcfc" style="fill: var(--color2, #fcfcfc)" d="M19.603 22.129c-0.772 0.744-1.607 0.626-2.414 0.271-0.849-0.355-1.635-0.376-2.532 0-1.127 0.487-1.725 0.348-2.4-0.271-3.819-3.937-3.256-9.934 1.085-10.15 1.057 0.056 1.788 0.577 2.407 0.626 0.925-0.188 1.809-0.73 2.797-0.661 1.183 0.097 2.073 0.563 2.657 1.412-2.442 1.461-1.857 4.682 0.376 5.579-0.445 1.176-1.023 2.337-1.983 3.2l0.007-0.007zM15.673 11.93c-0.118-1.746 1.301-3.186 2.929-3.325 0.223 2.017-1.837 3.52-2.929 3.325z"></path>
</symbol>
<symbol id="icon-arrow-down" viewBox="0 0 32 32">
<path fill="#b5e5f3" style="fill: var(--color1, #b5e5f3)" d="M28.72 10.58c-0.38-0.38-0.88-0.58-1.42-0.58-0.52 0-1.040 0.2-1.4 0.58l-9.9 9.9-9.9-9.9c-0.38-0.38-0.9-0.58-1.42-0.56-0.52 0-1.020 0.2-1.4 0.58-0.36 0.38-0.58 0.88-0.58 1.4s0.2 1.020 0.56 1.4l11.32 11.32c0.38 0.38 0.88 0.58 1.42 0.58 0.52 0 1.020-0.2 1.4-0.58l11.32-11.32c0.38-0.38 0.58-0.88 0.58-1.4 0-0.54-0.2-1.040-0.58-1.42z"></path>
</symbol>
<symbol id="icon-Pencil" viewBox="0 0 32 32">
<path d="M18.613 4.853c-0.133-0.12-0.293-0.187-0.48-0.187-0.173 0-0.347 0.067-0.467 0.187l-12.253 12.253c-0.093 0.093-0.147 0.2-0.173 0.307l-1.333 5.107c-0.067 0.227 0 0.467 0.173 0.64 0.16 0.173 0.4 0.227 0.64 0.173l5.093-1.333c0.12-0.027 0.227-0.093 0.307-0.173l12.253-12.253c0.267-0.267 0.267-0.693 0-0.947l-3.76-3.773zM3 26.667c0-0.56 0.44-1 1-1h20c0.547 0 1 0.44 1 1 0 0.547-0.453 1-1 1h-20c-0.56 0-1-0.453-1-1z"></path>
</symbol>
<symbol id="icon-arrow-up" viewBox="0 0 32 32">
<path d="M8.627 18.707c-0.4-0.4-0.4-1.027 0-1.427l5.333-5.333c0.387-0.387 1.013-0.387 1.413 0l5.333 5.333c0.387 0.4 0.387 1.027 0 1.427-0.4 0.387-1.027 0.387-1.413 0l-4.627-4.627-4.627 4.627c-0.4 0.387-1.027 0.387-1.413 0z"></path>
</symbol>
</symbol>
<symbol id="icon-arrow-down" viewBox="0 0 32 32">
<path d="M22.040 13.28c0.387 0.4 0.387 1.027 0 1.427l-5.333 5.333c-0.4 0.387-1.027 0.387-1.427 0l-5.333-5.333c-0.387-0.4-0.387-1.027 0-1.427 0.4-0.387 1.027-0.387 1.427 0l4.627 4.627 4.613-4.627c0.4-0.387 1.027-0.387 1.427 0z"></path>
</symbol>
<symbol id="icon-plus" viewBox="0 0 32 32">
<path d="M17 9.333c0-0.56-0.453-1-1-1-0.56 0-1 0.44-1 1v5.667h-5.667c-0.56 0-1 0.44-1 1 0 0.547 0.44 1 1 1h5.667v5.667c0 0.547 0.44 1 1 1 0.547 0 1-0.453 1-1v-5.667h5.667c0.547 0 1-0.453 1-1 0-0.56-0.453-1-1-1h-5.667v-5.667z"></path>
</symbol>
<symbol id="icon-cross" viewBox="0 0 32 32">
<path d="M30.313 2.88c1.135-1.135 1.135-2.996 0-4.131s-2.996-1.135-4.131 0l-11.665 11.665-11.636-11.665c-1.135-1.135-2.996-1.135-4.131 0s-1.135 2.996 0 4.131l11.665 11.665-11.665 11.636c-1.135 1.135-1.135 2.996 0 4.131s2.996 1.135 4.131 0l11.636-11.665 11.665 11.665c1.135 1.135 2.996 1.135 4.131 0s1.135-2.996 0-4.131l-11.665-11.636 11.665-11.665z"></path>
</symbol>

<symbol id="icon-basket" viewBox="0 0 32 32">
<path d="M13.333 3c-0.56 0-1 0.44-1 1v1h-5.667c-0.56 0-1 0.44-1 1 0 0.547 0.44 1 1 1h18.667c0.547 0 1-0.453 1-1 0-0.56-0.453-1-1-1h-5.667v-1c0-0.56-0.453-1-1-1h-5.333zM8.973 10c-0.333 0-0.627 0.253-0.667 0.587l-0.267 2.4c-0.48 4.333-0.48 8.707 0 13.027l0.027 0.24c0.187 1.573 1.4 2.84 2.973 3.053 3.28 0.467 6.627 0.467 9.907 0 1.573-0.213 2.787-1.48 2.973-3.053l0.027-0.24c0.48-4.32 0.48-8.693 0-13.027l-0.267-2.4c-0.040-0.333-0.333-0.587-0.667-0.587h-14.040zM13.333 14.2c0.547 0 1 0.44 1 1v9.333c0 0.547-0.453 1-1 1-0.56 0-1-0.453-1-1v-9.333c0-0.56 0.44-1 1-1zM18.667 14.2c0.547 0 1 0.44 1 1v9.333c0 0.547-0.453 1-1 1-0.56 0-1-0.453-1-1v-9.333c0-0.56 0.44-1 1-1z"></path>
</symbol>
<symbol id="icon-arrow-left" viewBox="0 0 18 32">
<path d="M0.418 16.997l15.145 14.622c0.252 0.24 0.591 0.382 0.935 0.382 0.351 0 0.689-0.142 0.942-0.382l0.012-0.018c0.123-0.117 0.222-0.258 0.289-0.418s0.105-0.326 0.105-0.498c0-0.172-0.037-0.345-0.105-0.498-0.068-0.16-0.166-0.302-0.289-0.418l-14.258-13.772 14.258-13.766c0.123-0.117 0.222-0.258 0.289-0.418 0.068-0.154 0.105-0.326 0.105-0.498s-0.037-0.338-0.105-0.498c-0.068-0.16-0.166-0.302-0.289-0.418l-0.012-0.018c-0.252-0.24-0.591-0.375-0.942-0.375-0.345 0-0.683 0.135-0.935 0.375l-15.145 14.622c-0.135 0.129-0.24 0.289-0.314 0.455-0.068 0.172-0.105 0.357-0.105 0.548 0 0.185 0.037 0.369 0.105 0.542 0.074 0.166 0.178 0.326 0.314 0.455z"></path>
</symbol>
<symbol id="icon-arrow-right" viewBox="0 0 18 32">
<path  d="M17.422 14.997l-15.145-14.622c-0.252-0.24-0.591-0.375-0.935-0.375-0.351 0-0.689 0.135-0.942 0.375l-0.012 0.018c-0.123 0.117-0.222 0.258-0.289 0.418s-0.098 0.326-0.098 0.498c0 0.172 0.031 0.345 0.098 0.498 0.068 0.16 0.166 0.302 0.289 0.418l14.258 13.772-14.258 13.766c-0.123 0.117-0.222 0.258-0.289 0.418-0.068 0.154-0.098 0.326-0.098 0.498s0.031 0.338 0.098 0.498c0.068 0.16 0.166 0.302 0.289 0.418l0.012 0.018c0.252 0.24 0.591 0.382 0.942 0.382 0.345 0 0.683-0.142 0.935-0.382l15.145-14.622c0.135-0.129 0.24-0.289 0.314-0.455 0.068-0.172 0.111-0.357 0.111-0.542 0-0.191-0.043-0.375-0.111-0.548-0.074-0.166-0.178-0.326-0.314-0.455z"></path>
</symbol>
</defs>
</svg>
