<svg width="29.000000" height="52.000000" viewBox="0 0 29 52" fill="none" xmlns="http://www.w3.org/2000/svg" xmlns:xlink="http://www.w3.org/1999/xlink">
	<desc>
			Created with Pixso.
	</desc>
	<defs/>
	<path id="Vector" d="M0.68 27.62L25.29 51.38C25.7 51.77 26.25 52 26.81 52C27.38 52 27.93 51.77 28.34 51.38L28.36 51.35C28.56 51.16 28.72 50.93 28.83 50.67C28.94 50.41 29 50.14 29 49.86C29 49.58 28.94 49.3 28.83 49.05C28.72 48.79 28.56 48.56 28.36 48.37L5.19 25.99L28.36 3.62C28.56 3.43 28.72 3.2 28.83 2.94C28.94 2.69 29 2.41 29 2.13C29 1.85 28.94 1.58 28.83 1.32C28.72 1.06 28.56 0.83 28.36 0.64L28.34 0.61C27.93 0.22 27.38 0 26.81 0C26.25 0 25.7 0.22 25.29 0.61L0.68 24.37C0.46 24.58 0.29 24.84 0.17 25.11C0.06 25.39 0 25.69 0 26C0 26.3 0.06 26.6 0.17 26.88C0.29 27.15 0.46 27.41 0.68 27.62Z" fill="#5E92B6" fill-opacity="1.000000" fill-rule="nonzero"/>
</svg>
